{"glyphs":{"0":{"ha":317,"x_min":22,"x_max":294,"o":"m 147 -8 q 101 -1 124 -8 q 62 24 79 7 q 33 66 44 40 q 22 128 22 92 l 22 843 q 33 905 22 879 q 62 947 44 931 q 101 972 79 964 q 147 979 124 979 l 169 979 q 215 972 192 979 q 255 947 238 964 q 283 905 272 931 q 294 843 294 879 l 294 128 q 283 66 294 92 q 255 24 272 40 q 215 -1 238 7 q 169 -8 192 -8 l 147 -8 m 154 900 q 128 883 139 900 q 117 829 117 867 l 117 142 q 128 87 117 103 q 154 71 139 71 l 163 71 q 189 87 178 71 q 200 142 200 103 l 200 829 q 189 883 200 867 q 163 900 178 900 l 154 900 z "},"1":{"ha":231,"x_min":14,"x_max":194,"o":"m 100 0 l 100 829 q 58 819 83 825 q 14 814 33 814 l 14 888 q 48 894 31 888 q 80 912 65 900 q 104 939 94 924 q 117 971 114 954 l 194 971 l 194 0 l 100 0 z "},"2":{"ha":317,"x_min":22,"x_max":294,"o":"m 22 581 l 22 843 q 33 905 22 879 q 62 947 44 931 q 101 972 79 964 q 146 979 124 979 l 161 979 q 206 972 183 979 q 247 947 229 964 q 275 905 264 931 q 286 843 286 879 l 286 690 q 274 606 286 644 q 242 527 261 567 q 201 444 224 488 q 160 349 179 401 q 129 230 142 296 q 117 79 117 164 l 294 79 l 294 0 l 22 0 l 22 79 q 35 243 22 172 q 66 369 47 314 q 107 466 85 424 q 148 547 129 508 q 179 623 167 585 q 192 706 192 661 l 192 829 q 181 885 192 869 q 154 900 169 900 l 146 900 q 119 884 131 900 q 108 831 108 868 l 108 581 l 22 581 z "},"3":{"ha":317,"x_min":22,"x_max":294,"o":"m 154 533 q 200 613 200 533 l 200 829 q 189 885 200 869 q 163 900 178 900 l 154 900 q 128 884 139 900 q 117 831 117 868 l 117 578 l 22 578 l 22 843 q 33 905 22 879 q 62 947 44 931 q 101 972 79 964 q 147 979 124 979 l 169 979 q 215 972 192 979 q 255 947 238 964 q 283 905 272 931 q 294 843 294 879 l 294 624 q 268 537 294 565 q 206 500 242 508 q 267 467 240 493 q 294 383 294 440 l 294 126 q 283 65 294 90 q 255 23 272 39 q 215 -1 238 7 q 169 -8 192 -8 l 147 -8 q 101 -1 124 -8 q 62 23 79 7 q 33 65 44 39 q 22 126 22 90 l 22 392 l 117 392 l 117 140 q 128 85 117 101 q 154 69 139 69 l 163 69 q 189 85 178 69 q 200 140 200 101 l 200 386 q 188 444 200 424 q 154 465 176 465 l 122 465 l 122 533 l 154 533 z "},"4":{"ha":356,"x_min":14,"x_max":331,"o":"m 331 222 l 331 143 l 282 143 l 282 0 l 201 0 l 201 143 l 14 143 l 14 222 l 172 971 l 282 971 l 282 222 l 331 222 m 201 704 l 199 704 l 104 224 l 104 222 l 201 222 l 201 704 z "},"5":{"ha":317,"x_min":22,"x_max":294,"o":"m 147 -8 q 101 -1 124 -8 q 62 24 79 7 q 33 66 44 40 q 22 128 22 92 l 22 400 l 117 400 l 117 142 q 128 87 117 103 q 154 71 139 71 l 163 71 q 189 87 178 71 q 200 142 200 103 l 200 464 q 189 519 200 504 q 163 535 178 535 l 154 535 q 128 519 139 535 q 117 465 117 503 l 117 456 l 97 456 l 97 457 l 22 457 l 22 971 l 292 971 l 283 892 l 117 892 l 117 564 q 151 602 131 590 q 193 614 172 614 l 203 614 q 265 582 236 614 q 294 478 294 550 l 294 128 q 283 66 294 92 q 255 24 272 40 q 215 -1 238 7 q 169 -8 192 -8 l 147 -8 z "},"6":{"ha":317,"x_min":22,"x_max":294,"o":"m 147 -8 q 101 -1 124 -8 q 62 24 79 7 q 33 66 44 40 q 22 128 22 92 l 22 843 q 33 905 22 879 q 62 947 44 931 q 101 972 79 964 q 147 979 124 979 l 164 979 q 209 972 186 979 q 249 947 232 964 q 278 905 267 931 q 289 843 289 879 l 289 661 l 200 661 l 200 831 q 189 884 200 868 q 163 900 178 900 l 154 900 q 128 885 139 900 q 117 829 117 869 l 117 564 q 151 602 131 590 q 193 614 172 614 l 203 614 q 265 582 236 614 q 294 478 294 550 l 294 128 q 283 66 294 92 q 255 24 272 40 q 215 -1 238 7 q 169 -8 192 -8 l 147 -8 m 117 142 q 128 87 117 103 q 154 71 139 71 l 163 71 q 189 87 178 71 q 200 142 200 103 l 200 464 q 189 519 200 504 q 163 535 178 535 l 154 535 q 128 521 139 535 q 117 475 118 507 l 117 142 z "},"7":{"ha":274,"x_min":11,"x_max":249,"o":"m 14 0 l 154 900 l 11 900 l 11 971 l 249 971 l 249 900 l 110 0 l 14 0 z "},"8":{"ha":317,"x_min":22,"x_max":294,"o":"m 147 -8 q 101 -1 124 -8 q 62 24 79 7 q 33 66 44 40 q 22 128 22 92 l 22 379 q 40 454 22 425 q 83 499 57 483 q 40 543 57 514 q 22 619 22 572 l 22 843 q 33 905 22 879 q 62 947 44 931 q 101 972 79 964 q 147 979 124 979 l 169 979 q 215 972 192 979 q 255 947 238 964 q 283 905 272 931 q 294 843 294 879 l 294 619 q 277 543 294 572 q 233 499 260 514 q 277 454 260 483 q 294 379 294 425 l 294 128 q 283 66 294 92 q 255 24 272 40 q 215 -1 238 7 q 169 -8 192 -8 l 147 -8 m 154 469 q 128 453 139 469 q 117 399 117 436 l 117 142 q 128 87 117 103 q 154 71 139 71 l 163 71 q 189 87 178 71 q 200 142 200 103 l 200 399 q 189 453 200 436 q 163 469 178 469 l 154 469 m 154 900 q 128 883 139 900 q 117 829 117 867 l 117 600 q 128 545 117 561 q 154 529 139 529 l 163 529 q 189 545 178 529 q 200 600 200 561 l 200 829 q 189 883 200 867 q 163 900 178 900 l 154 900 z "},"9":{"ha":317,"x_min":22,"x_max":294,"o":"m 169 979 q 215 972 192 979 q 255 947 238 964 q 283 905 272 931 q 294 843 294 879 l 294 128 q 283 66 294 92 q 255 24 272 40 q 215 -1 238 7 q 169 -8 192 -8 l 153 -8 q 107 -1 129 -8 q 67 24 85 7 q 39 66 50 40 q 28 128 28 92 l 28 392 l 117 392 l 117 140 q 128 87 117 103 q 156 71 139 71 l 163 71 q 189 86 178 71 q 200 142 200 101 l 200 488 q 164 451 185 463 q 124 439 143 439 l 114 439 q 51 471 81 439 q 22 575 22 503 l 22 843 q 33 905 22 879 q 62 947 44 931 q 101 972 79 964 q 147 979 124 979 l 169 979 m 200 829 q 189 884 200 868 q 163 900 178 900 l 154 900 q 128 884 139 900 q 117 829 117 868 l 117 589 q 128 533 117 549 q 154 518 139 518 l 163 518 q 189 534 178 518 q 200 588 200 550 l 200 829 z "},"\u0000":{"ha":0,"x_min":0,"x_max":0,"o":""},"\r":{"ha":158,"x_min":0,"x_max":0,"o":""}," ":{"ha":158,"x_min":0,"x_max":0,"o":""},"K":{"ha":315,"x_min":25,"x_max":313,"o":"m 186 503 l 310 0 l 224 0 l 121 378 l 119 378 l 119 0 l 25 0 l 25 971 l 119 971 l 119 592 l 121 592 l 226 971 l 313 971 l 186 503 z "},"L":{"ha":240,"x_min":25,"x_max":236,"o":"m 119 971 l 119 71 l 236 71 l 236 0 l 25 0 l 25 971 l 119 971 z "},"M":{"ha":429,"x_min":22,"x_max":404,"o":"m 404 971 l 404 0 l 326 0 l 326 683 l 325 683 l 249 0 l 179 0 l 103 683 l 101 683 l 101 0 l 22 0 l 22 971 l 144 971 l 213 357 l 214 357 l 283 971 l 404 971 z "},"N":{"ha":357,"x_min":22,"x_max":335,"o":"m 229 0 l 103 682 l 101 682 l 101 0 l 22 0 l 22 971 l 129 971 l 249 299 l 249 971 l 335 971 l 335 0 l 229 0 z "},"O":{"ha":317,"x_min":22,"x_max":294,"o":"m 147 -8 q 101 -1 124 -8 q 62 24 79 7 q 33 66 44 40 q 22 128 22 92 l 22 843 q 33 905 22 879 q 62 947 44 931 q 101 972 79 964 q 147 979 124 979 l 169 979 q 215 972 192 979 q 255 947 238 964 q 283 905 272 931 q 294 843 294 879 l 294 128 q 283 66 294 92 q 255 24 272 40 q 215 -1 238 7 q 169 -8 192 -8 l 147 -8 m 154 900 q 128 883 139 900 q 117 829 117 867 l 117 142 q 128 87 117 103 q 154 71 139 71 l 163 71 q 189 87 178 71 q 200 142 200 103 l 200 829 q 189 883 200 867 q 163 900 178 900 l 154 900 z "},"P":{"ha":319,"x_min":25,"x_max":297,"o":"m 174 971 q 260 937 224 971 q 297 836 297 903 l 297 518 q 263 430 297 456 q 179 404 229 404 l 119 404 l 119 0 l 25 0 l 25 971 l 174 971 m 203 822 q 192 875 203 858 q 164 892 181 892 l 119 892 l 119 482 l 169 482 q 203 547 203 482 l 203 822 z "},"Q":{"ha":319,"x_min":22,"x_max":294,"o":"m 147 -8 q 101 -1 124 -8 q 62 24 79 7 q 33 66 44 40 q 22 128 22 92 l 22 843 q 33 905 22 879 q 62 947 44 931 q 101 972 79 964 q 147 979 124 979 l 169 979 q 215 972 192 979 q 255 947 238 964 q 283 905 272 931 q 294 843 294 879 l 294 128 q 283 64 294 90 q 251 21 271 38 l 292 -18 l 244 -65 l 186 -7 q 178 -8 182 -7 q 169 -8 174 -8 l 147 -8 m 154 900 q 128 883 139 900 q 117 829 117 867 l 117 142 q 128 87 117 103 q 154 71 139 71 l 163 71 q 189 87 178 71 q 200 142 200 103 l 200 829 q 189 883 200 867 q 163 900 178 900 l 154 900 z "},"R":{"ha":328,"x_min":25,"x_max":313,"o":"m 297 579 q 283 513 297 535 q 249 485 269 492 q 283 458 269 479 q 297 392 297 436 l 297 165 q 303 42 297 78 q 313 0 308 7 l 218 0 q 206 56 208 17 q 203 165 203 94 l 203 383 q 169 450 203 450 l 119 450 l 119 0 l 25 0 l 25 971 l 174 971 q 260 937 224 971 q 297 836 297 903 l 297 579 m 169 519 q 203 585 203 519 l 203 822 q 192 875 203 858 q 164 892 181 892 l 119 892 l 119 519 l 169 519 z "},"S":{"ha":317,"x_min":22,"x_max":294,"o":"m 200 581 l 200 831 q 189 884 200 868 q 163 900 178 900 l 154 900 q 128 885 139 900 q 117 829 117 869 l 117 706 q 144 589 117 639 q 206 493 172 539 q 267 398 239 447 q 294 281 294 349 l 294 128 q 284 66 294 92 q 256 24 274 40 q 215 -1 238 7 q 169 -8 193 -8 l 150 -8 q 104 -1 126 -8 q 63 24 82 7 q 33 66 44 40 q 22 128 22 92 l 22 392 l 108 392 l 108 142 q 121 87 108 103 q 151 71 133 71 l 158 71 q 188 87 176 71 q 200 142 200 103 l 200 265 q 172 381 200 332 q 111 476 144 431 q 50 572 78 522 q 22 690 22 622 l 22 843 q 33 905 22 879 q 63 947 44 931 q 103 972 81 964 q 149 979 125 979 l 163 979 q 207 972 185 979 q 247 947 229 964 q 276 905 265 931 q 286 843 286 879 l 286 581 l 200 581 z "},"T":{"ha":288,"x_min":4,"x_max":283,"o":"m 283 892 l 190 892 l 190 0 l 97 0 l 97 892 l 4 892 l 4 971 l 283 971 l 283 892 z "},"U":{"ha":319,"x_min":25,"x_max":297,"o":"m 150 -8 q 104 -1 126 -8 q 65 24 82 7 q 36 66 47 40 q 25 128 25 92 l 25 971 l 119 971 l 119 142 q 131 87 119 103 q 157 71 142 71 l 165 71 q 192 87 181 71 q 203 142 203 103 l 203 971 l 297 971 l 297 128 q 286 66 297 92 q 258 24 275 40 q 217 -1 240 7 q 172 -8 194 -8 l 150 -8 z "},"V":{"ha":310,"x_min":4,"x_max":307,"o":"m 225 971 l 307 971 l 217 0 l 97 0 l 4 971 l 94 971 l 158 261 l 161 261 l 225 971 z "},"W":{"ha":476,"x_min":4,"x_max":472,"o":"m 76 0 l 4 971 l 94 971 l 139 324 l 142 324 l 201 971 l 276 971 l 342 324 l 344 324 l 390 971 l 472 971 l 400 0 l 307 0 l 240 601 l 239 601 l 181 0 l 76 0 z "},"X":{"ha":311,"x_min":4,"x_max":307,"o":"m 204 493 l 307 0 l 211 0 l 150 303 l 94 0 l 4 0 l 106 521 l 4 971 l 97 971 l 156 713 l 210 971 l 304 971 l 204 493 z "},"Y":{"ha":311,"x_min":4,"x_max":307,"o":"m 203 364 l 203 0 l 108 0 l 108 364 l 4 971 l 97 971 l 154 578 l 157 578 l 214 971 l 307 971 l 203 364 z "},"Z":{"ha":303,"x_min":13,"x_max":290,"o":"m 290 0 l 13 0 l 13 68 l 182 900 l 38 900 l 38 971 l 276 971 l 276 903 l 107 71 l 290 71 l 290 0 z "},"a":{"ha":286,"x_min":21,"x_max":268,"o":"m 100 -4 q 36 30 51 -4 q 21 124 21 64 l 21 257 q 40 351 21 317 q 106 385 58 385 l 110 385 q 144 376 126 385 q 181 356 163 368 l 181 561 q 171 604 181 590 q 147 618 161 618 l 140 618 q 117 604 126 618 q 108 561 108 590 l 108 404 l 21 404 l 21 564 q 53 658 21 625 q 133 692 86 692 l 156 692 q 236 658 204 692 q 268 563 268 625 l 268 0 l 181 0 l 181 26 q 142 4 161 13 q 104 -4 122 -4 l 100 -4 m 140 319 q 117 306 126 319 q 108 263 108 292 l 108 118 q 117 74 108 88 q 140 61 126 61 l 143 61 q 169 74 158 61 q 181 118 181 88 l 181 288 q 170 313 181 306 q 150 319 160 319 l 140 319 z "},"b":{"ha":288,"x_min":22,"x_max":269,"o":"m 178 -4 q 138 8 158 -4 q 101 39 118 19 l 93 0 l 22 0 l 22 971 l 110 971 l 110 653 q 144 681 125 671 q 181 692 163 692 l 185 692 q 251 658 232 692 q 269 564 269 624 l 269 124 q 249 30 269 64 q 182 -4 229 -4 l 178 -4 m 146 618 q 122 603 132 618 q 110 564 111 589 l 110 122 q 122 83 111 96 q 146 69 133 69 l 150 69 q 172 83 163 69 q 182 126 182 96 l 182 561 q 172 604 182 590 q 149 618 163 618 l 146 618 z "},"c":{"ha":286,"x_min":21,"x_max":268,"o":"m 181 404 l 181 561 q 172 604 181 590 q 149 618 163 618 l 142 618 q 118 604 128 618 q 108 561 108 590 l 108 126 q 118 83 108 96 q 139 69 128 69 l 149 69 q 172 83 163 69 q 181 126 181 96 l 181 286 l 268 286 l 268 125 q 235 29 268 63 q 156 -4 203 -4 l 131 -4 q 53 30 86 -4 q 21 125 21 64 l 21 563 q 53 658 21 625 q 133 692 85 692 l 156 692 q 235 658 203 692 q 268 564 268 625 l 268 404 l 181 404 z "},"d":{"ha":290,"x_min":21,"x_max":268,"o":"m 108 -4 q 40 30 60 -4 q 21 124 21 64 l 21 564 q 40 658 21 624 q 106 692 58 692 l 110 692 q 146 681 128 692 q 181 653 164 671 l 181 971 l 268 971 l 268 0 l 197 0 l 188 39 q 151 8 171 19 q 113 -4 132 -4 l 108 -4 m 142 618 q 118 604 128 618 q 108 561 108 590 l 108 126 q 117 83 108 96 q 140 69 126 69 l 143 69 q 167 83 157 69 q 181 122 178 96 l 181 564 q 167 603 178 589 q 144 618 157 618 l 142 618 z "},"e":{"ha":286,"x_min":21,"x_max":268,"o":"m 139 69 l 149 69 q 172 83 163 69 q 181 126 181 96 l 181 286 l 268 286 l 268 125 q 235 29 268 63 q 156 -4 203 -4 l 131 -4 q 53 30 86 -4 q 21 125 21 64 l 21 563 q 53 658 21 625 q 133 692 85 692 l 156 692 q 235 658 203 692 q 268 564 268 625 l 268 324 l 108 324 l 108 126 q 118 83 108 96 q 139 69 128 69 m 181 385 l 181 561 q 172 604 181 590 q 149 618 163 618 l 142 618 q 118 604 128 618 q 108 561 108 590 l 108 385 l 181 385 z "},"f":{"ha":231,"x_min":21,"x_max":228,"o":"m 56 0 l 56 614 l 21 614 l 21 688 l 56 688 l 56 853 q 66 908 56 882 q 98 953 76 935 q 151 977 119 971 q 228 974 183 983 l 228 904 q 200 904 215 906 q 172 896 185 903 q 150 876 158 889 q 142 846 142 864 l 142 688 l 228 688 l 228 614 l 142 614 l 142 0 l 56 0 z "},"g":{"ha":289,"x_min":21,"x_max":268,"o":"m 268 688 l 268 -100 q 235 -195 268 -161 q 158 -229 203 -229 l 133 -229 q 53 -196 86 -229 q 21 -100 21 -162 l 21 -40 l 108 -40 l 108 -99 q 117 -142 108 -129 q 140 -156 126 -156 l 150 -156 q 171 -142 161 -156 q 181 -99 181 -129 l 181 32 q 144 6 163 15 q 110 -4 126 -4 l 106 -4 q 40 30 58 -4 q 21 124 21 64 l 21 564 q 40 658 21 624 q 108 692 60 692 l 113 692 q 183 656 147 692 l 197 688 l 268 688 m 143 69 q 167 83 157 69 q 181 124 178 97 l 181 556 q 169 602 181 586 q 143 618 158 618 l 140 618 q 117 605 126 618 q 108 561 108 592 l 108 126 q 117 83 108 97 q 140 69 126 69 l 143 69 z "},"h":{"ha":293,"x_min":25,"x_max":274,"o":"m 151 618 q 124 601 136 618 q 113 554 113 583 l 113 0 l 25 0 l 25 971 l 113 971 l 113 651 q 147 681 129 669 q 185 692 165 692 l 189 692 q 255 658 236 692 q 274 564 274 624 l 274 0 l 186 0 l 186 561 q 177 605 186 592 q 154 618 168 618 l 151 618 z "},"i":{"ha":133,"x_min":25,"x_max":113,"o":"m 113 688 l 113 0 l 25 0 l 25 688 l 113 688 m 113 861 l 113 742 l 25 742 l 25 861 l 113 861 z "},"j":{"ha":188,"x_min":22,"x_max":165,"o":"m 165 863 l 165 740 l 79 740 l 79 863 l 165 863 m 165 688 l 165 -101 q 133 -195 165 -161 q 22 -229 100 -229 l 22 -156 q 64 -142 49 -156 q 79 -101 79 -129 l 79 688 l 165 688 z "},"k":{"ha":289,"x_min":25,"x_max":286,"o":"m 165 358 l 286 0 l 197 0 l 111 258 l 111 0 l 25 0 l 25 971 l 111 971 l 111 447 l 201 688 l 285 688 l 165 358 z "},"l":{"ha":132,"x_min":25,"x_max":113,"o":"m 25 971 l 113 971 l 113 0 l 25 0 l 25 971 z "},"m":{"ha":451,"x_min":22,"x_max":432,"o":"m 149 618 q 122 601 135 618 q 110 554 110 583 l 110 0 l 22 0 l 22 688 l 110 688 l 110 651 q 145 681 126 669 q 183 692 164 692 l 186 692 q 260 640 242 692 q 301 678 279 664 q 344 692 322 692 l 347 692 q 414 658 396 692 q 432 564 432 624 l 432 0 l 344 0 l 344 561 q 335 605 344 592 q 313 618 326 618 l 310 618 q 285 603 297 618 q 271 564 274 589 l 271 0 l 183 0 l 183 561 q 174 605 183 592 q 151 618 165 618 l 149 618 z "},"n":{"ha":290,"x_min":22,"x_max":271,"o":"m 149 618 q 122 601 135 618 q 110 554 110 583 l 110 0 l 22 0 l 22 688 l 110 688 l 110 651 q 145 681 126 669 q 183 692 164 692 l 186 692 q 253 658 235 692 q 271 564 271 624 l 271 0 l 183 0 l 183 561 q 174 605 183 592 q 151 618 165 618 l 149 618 z "},"o":{"ha":286,"x_min":21,"x_max":268,"o":"m 133 -4 q 53 30 85 -4 q 21 124 21 64 l 21 564 q 53 658 22 624 q 133 692 85 692 l 156 692 q 235 658 203 692 q 268 564 268 624 l 268 124 q 235 30 268 64 q 156 -4 203 -4 l 133 -4 m 142 618 q 118 604 128 618 q 108 561 108 590 l 108 126 q 118 83 108 96 q 142 69 128 69 l 149 69 q 172 83 163 69 q 181 126 181 96 l 181 561 q 172 604 181 590 q 149 618 163 618 l 142 618 z "},"p":{"ha":290,"x_min":25,"x_max":272,"o":"m 185 692 q 252 658 232 692 q 272 564 272 624 l 272 124 q 253 30 272 64 q 188 -4 235 -4 l 183 -4 q 147 6 165 -4 q 113 33 128 17 l 113 -229 l 25 -229 l 25 688 l 96 688 l 104 647 q 141 679 121 667 q 181 692 161 692 l 185 692 m 153 69 q 175 83 165 69 q 185 126 185 97 l 185 561 q 175 605 185 592 q 153 618 165 618 l 149 618 q 125 604 136 618 q 113 564 114 590 l 113 132 q 124 86 113 103 q 149 69 135 69 l 153 69 z "},"q":{"ha":290,"x_min":21,"x_max":268,"o":"m 113 692 q 151 679 132 692 q 188 647 171 667 l 197 688 l 268 688 l 268 -229 l 181 -229 l 181 35 q 146 6 164 17 q 110 -4 128 -4 l 106 -4 q 40 30 58 -4 q 21 124 21 64 l 21 564 q 40 658 21 624 q 108 692 60 692 l 113 692 m 143 69 q 167 83 157 69 q 181 124 178 97 l 181 564 q 167 604 178 590 q 143 618 157 618 l 140 618 q 117 605 126 618 q 108 561 108 592 l 108 126 q 117 83 108 97 q 140 69 126 69 l 143 69 z "},"r":{"ha":289,"x_min":22,"x_max":271,"o":"m 149 618 q 122 601 135 618 q 110 554 110 583 l 110 0 l 22 0 l 22 688 l 110 688 l 110 651 q 145 681 126 669 q 183 692 164 692 l 186 692 q 257 649 238 692 q 271 564 271 619 l 271 404 l 183 404 l 183 561 q 174 605 183 592 q 151 618 165 618 l 149 618 z "},"s":{"ha":286,"x_min":21,"x_max":267,"o":"m 181 417 l 181 561 q 171 603 181 589 q 147 618 161 618 l 142 618 q 118 603 128 618 q 108 561 108 589 l 108 490 q 133 415 108 446 q 188 353 158 383 q 242 289 217 324 q 267 203 267 254 l 267 124 q 235 30 267 64 q 156 -4 203 -4 l 135 -4 q 53 30 86 -4 q 21 124 21 64 l 21 271 l 100 271 l 100 126 q 110 84 100 99 q 138 69 121 69 l 144 69 q 170 84 160 69 q 181 126 181 99 l 181 197 q 156 271 181 240 q 101 331 131 301 q 46 397 71 361 q 21 485 21 432 l 21 564 q 53 658 21 624 q 133 692 85 692 l 146 692 q 226 658 194 692 q 258 564 258 624 l 258 417 l 181 417 z "},"t":{"ha":201,"x_min":11,"x_max":189,"o":"m 132 913 l 132 688 l 189 688 l 189 614 l 132 614 l 132 124 q 147 78 132 93 q 189 68 163 63 l 189 -1 q 123 1 150 -7 q 78 26 96 8 q 53 69 61 43 q 44 124 44 94 l 44 614 l 11 614 l 11 688 l 44 688 l 44 904 l 132 913 z "},"u":{"ha":289,"x_min":19,"x_max":268,"o":"m 142 69 q 167 84 156 69 q 181 125 178 99 l 181 688 l 268 688 l 268 0 l 181 0 l 181 35 q 145 6 164 17 q 108 -4 126 -4 l 104 -4 q 38 30 56 -4 q 19 124 19 64 l 19 688 l 107 688 l 107 126 q 116 83 107 96 q 139 69 125 69 l 142 69 z "},"v":{"ha":260,"x_min":3,"x_max":257,"o":"m 183 688 l 257 688 l 185 0 l 78 0 l 3 688 l 83 688 l 132 185 l 135 185 l 183 688 z "},"w":{"ha":446,"x_min":3,"x_max":443,"o":"m 72 0 l 3 688 l 85 688 l 128 229 l 129 229 l 188 688 l 264 688 l 324 229 l 325 229 l 369 688 l 443 688 l 372 0 l 276 0 l 219 497 l 217 497 l 168 0 l 72 0 z "},"x":{"ha":290,"x_min":3,"x_max":288,"o":"m 183 357 l 288 0 l 200 0 l 142 222 l 82 0 l 3 0 l 100 347 l 4 688 l 90 688 l 144 485 l 199 688 l 278 688 l 183 357 z "},"y":{"ha":260,"x_min":3,"x_max":257,"o":"m 186 688 l 257 688 l 164 -229 l 78 -229 l 104 0 l 3 688 l 82 688 l 133 243 l 138 243 l 186 688 z "},"z":{"ha":251,"x_min":3,"x_max":246,"o":"m 246 0 l 3 0 l 3 71 l 160 617 l 18 617 l 18 688 l 244 688 l 244 618 l 89 71 l 246 71 l 246 0 z "},"$":{"ha":317,"x_min":22,"x_max":294,"o":"m 126 -6 q 54 33 86 1 q 22 128 22 64 l 22 392 l 108 392 l 108 142 q 121 87 108 103 q 151 71 133 71 l 158 71 q 188 87 176 71 q 200 142 200 103 l 200 265 q 172 381 200 332 q 111 476 144 431 q 50 572 78 522 q 22 690 22 622 l 22 843 q 54 938 22 906 q 126 976 86 969 l 126 1050 l 189 1050 l 189 976 q 257 937 228 968 q 286 843 286 906 l 286 581 l 200 581 l 200 831 q 189 884 200 868 q 163 900 178 900 l 154 900 q 128 885 139 900 q 117 829 117 869 l 117 706 q 144 589 117 639 q 206 493 172 539 q 267 398 239 447 q 294 281 294 349 l 294 128 q 263 31 294 63 q 189 -7 231 -1 l 189 -79 l 126 -79 l 126 -6 z "},"D":{"ha":319,"x_min":25,"x_max":297,"o":"m 25 0 l 25 971 l 172 971 q 217 964 194 971 q 258 941 240 957 q 286 900 275 925 q 297 839 297 875 l 297 132 q 286 71 297 96 q 258 30 275 46 q 217 7 240 14 q 172 0 194 0 l 25 0 m 119 892 l 119 79 l 165 79 q 192 94 181 79 q 203 146 203 108 l 203 825 q 192 877 203 863 q 165 892 181 892 l 119 892 z "},"ﬁ":{"ha":311,"x_min":22,"x_max":290,"o":"m 57 0 l 57 614 l 22 614 l 22 688 l 57 688 l 57 853 q 67 908 57 882 q 99 953 78 935 q 153 977 121 971 q 231 974 186 983 l 231 904 q 203 904 218 906 q 174 896 188 903 q 153 876 161 889 q 144 846 144 864 l 144 688 l 290 688 l 290 0 l 203 0 l 203 614 l 144 614 l 144 0 l 57 0 z "},"…":{"ha":486,"x_min":39,"x_max":447,"o":"m 135 0 l 39 0 l 39 128 l 135 128 l 135 0 m 292 0 l 196 0 l 196 128 l 292 128 l 292 0 m 447 0 l 353 0 l 353 128 l 447 128 l 447 0 z "},"!":{"ha":174,"x_min":39,"x_max":135,"o":"m 121 172 l 51 172 l 39 599 l 39 971 l 133 971 l 133 599 l 121 172 m 135 0 l 39 0 l 39 128 l 135 128 l 135 0 z "},".":{"ha":174,"x_min":39,"x_max":135,"o":"m 135 0 l 39 0 l 39 128 l 135 128 l 135 0 z "},",":{"ha":156,"x_min":29,"x_max":125,"o":"m 125 0 l 92 -83 l 51 -83 l 72 0 l 29 0 l 29 128 l 125 128 l 125 0 z "},":":{"ha":174,"x_min":39,"x_max":135,"o":"m 135 449 l 39 449 l 39 576 l 135 576 l 135 449 m 135 0 l 39 0 l 39 128 l 135 128 l 135 0 z "},";":{"ha":183,"x_min":47,"x_max":144,"o":"m 143 449 l 47 449 l 47 576 l 143 576 l 143 449 m 144 0 l 111 -83 l 71 -83 l 92 0 l 49 0 l 49 128 l 144 128 l 144 0 z "},"”":{"ha":339,"x_min":47,"x_max":300,"o":"m 143 843 l 110 758 l 69 758 l 90 843 l 47 843 l 47 971 l 143 971 l 143 843 m 300 843 l 267 758 l 226 758 l 247 843 l 204 843 l 204 971 l 300 971 l 300 843 z "},"“":{"ha":339,"x_min":39,"x_max":292,"o":"m 39 868 l 72 951 l 113 951 l 92 868 l 135 868 l 135 739 l 39 739 l 39 868 m 196 868 l 229 951 l 268 951 l 247 868 l 292 868 l 292 739 l 196 739 l 196 868 z "},"’":{"ha":182,"x_min":47,"x_max":143,"o":"m 143 818 l 110 733 l 69 733 l 90 818 l 47 818 l 47 946 l 143 946 l 143 818 z "},"‘":{"ha":182,"x_min":39,"x_max":135,"o":"m 39 868 l 72 951 l 113 951 l 92 868 l 135 868 l 135 739 l 39 739 l 39 868 z "},"?":{"ha":308,"x_min":22,"x_max":286,"o":"m 22 581 l 22 843 q 33 905 22 879 q 62 947 44 931 q 101 972 79 964 q 146 979 124 979 l 161 979 q 206 972 183 979 q 247 947 229 964 q 275 905 264 931 q 286 843 286 879 l 286 690 q 275 606 286 643 q 249 533 264 568 q 217 464 233 499 q 188 388 200 429 q 171 293 175 346 q 178 172 167 240 l 85 172 q 78 306 74 249 q 94 406 82 363 q 122 485 106 450 q 154 553 139 519 q 181 624 169 588 q 192 706 192 660 l 192 829 q 181 885 192 869 q 154 900 169 900 l 146 900 q 119 884 131 900 q 108 831 108 868 l 108 581 l 22 581 m 181 0 l 85 0 l 85 128 l 181 128 l 181 0 z "},"|":{"ha":154,"x_min":33,"x_max":121,"o":"m 33 1013 l 121 1013 l 121 -42 l 33 -42 l 33 1013 z "},"/":{"ha":303,"x_min":4,"x_max":299,"o":"m 221 971 l 299 971 l 83 0 l 4 0 l 221 971 z "},"\\":{"ha":303,"x_min":4,"x_max":299,"o":"m 299 0 l 221 0 l 4 971 l 83 971 l 299 0 z "},"⁄":{"ha":303,"x_min":4,"x_max":299,"o":"m 221 971 l 299 971 l 83 0 l 4 0 l 221 971 z "},"<":{"ha":335,"x_min":25,"x_max":310,"o":"m 310 7 l 306 6 l 25 319 l 25 364 l 306 681 l 308 678 l 308 582 l 307 578 l 106 346 l 106 340 l 307 111 l 308 107 l 310 7 z "},">":{"ha":335,"x_min":25,"x_max":310,"o":"m 26 107 l 28 110 l 228 340 l 228 344 l 28 578 l 26 581 l 26 678 l 29 681 l 310 364 l 310 318 l 28 6 l 25 7 l 26 107 z "},"%":{"ha":606,"x_min":25,"x_max":581,"o":"m 435 971 l 99 0 l 167 0 l 503 971 l 435 971 m 121 421 q 53 450 81 421 q 25 532 25 479 l 25 868 q 53 950 25 921 q 121 979 81 979 l 140 979 q 209 950 181 979 q 238 868 238 921 l 238 532 q 209 450 238 479 q 140 421 181 421 l 121 421 m 128 921 q 106 908 115 921 q 96 865 96 894 l 96 533 q 106 493 96 506 q 128 481 115 481 l 136 481 q 158 493 149 481 q 167 533 167 506 l 167 865 q 158 908 167 894 q 136 921 149 921 l 128 921 m 464 -8 q 396 21 424 -8 q 368 103 368 50 l 368 443 q 396 525 368 496 q 464 554 424 554 l 483 554 q 552 525 524 554 q 581 443 581 496 l 581 103 q 552 21 581 50 q 483 -8 524 -8 l 464 -8 m 471 494 q 447 481 457 494 q 438 440 438 468 l 438 104 q 447 63 438 76 q 471 50 457 50 l 478 50 q 500 63 490 50 q 510 104 510 76 l 510 440 q 500 481 510 468 q 478 494 490 494 l 471 494 z "},"‰":{"ha":846,"x_min":22,"x_max":824,"o":"m 432 971 l 96 0 l 164 0 l 500 971 l 432 971 m 118 421 q 50 450 78 421 q 22 532 22 479 l 22 868 q 51 950 24 921 q 118 979 78 979 l 139 979 q 207 950 179 979 q 235 868 235 921 l 235 532 q 207 450 235 479 q 139 421 179 421 l 118 421 m 126 921 q 103 908 113 921 q 93 865 93 894 l 93 533 q 103 493 93 506 q 126 481 113 481 l 133 481 q 156 493 146 481 q 165 533 165 506 l 165 865 q 156 908 165 894 q 133 921 146 921 l 126 921 m 461 -8 q 393 21 421 -8 q 365 103 365 50 l 365 443 q 393 525 365 496 q 461 554 421 554 l 481 554 q 549 525 521 554 q 578 443 578 496 l 578 103 q 549 21 578 50 q 481 -8 521 -8 l 461 -8 m 468 494 q 446 481 456 494 q 436 440 436 468 l 436 104 q 446 63 436 76 q 468 50 456 50 l 476 50 q 498 63 489 50 q 507 104 507 76 l 507 440 q 498 481 507 468 q 476 494 489 494 l 468 494 m 707 -8 q 639 21 667 -8 q 611 103 611 50 l 611 443 q 639 525 611 496 q 707 554 667 554 l 726 554 q 795 525 767 554 q 824 443 824 496 l 824 103 q 795 21 824 50 q 726 -8 767 -8 l 707 -8 m 714 494 q 690 481 700 494 q 681 440 681 468 l 681 104 q 690 63 681 76 q 714 50 700 50 l 721 50 q 743 63 733 50 q 753 104 753 76 l 753 440 q 743 481 753 468 q 721 494 733 494 l 714 494 z "},"«":{"ha":333,"x_min":25,"x_max":308,"o":"m 92 60 l 25 339 l 89 618 l 171 618 l 107 338 l 175 60 l 92 60 m 225 60 l 158 339 l 222 618 l 304 618 l 240 338 l 308 60 l 225 60 z "},"»":{"ha":333,"x_min":25,"x_max":308,"o":"m 25 60 l 92 338 l 29 618 l 111 618 l 175 339 l 108 60 l 25 60 m 158 60 l 225 338 l 163 618 l 244 618 l 308 339 l 242 60 l 158 60 z "},"^":{"ha":367,"x_min":25,"x_max":342,"o":"m 257 575 l 254 576 l 186 826 l 181 826 l 114 576 l 110 575 l 28 575 l 25 578 l 132 971 l 235 971 l 342 578 l 340 575 l 257 575 z "},"*":{"ha":272,"x_min":22,"x_max":250,"o":"m 93 747 l 53 775 l 100 843 l 22 867 l 39 914 l 114 886 l 111 971 l 161 971 l 158 886 l 233 914 l 250 867 l 172 843 l 219 775 l 181 747 l 136 819 l 93 747 z "},"#":{"ha":469,"x_min":25,"x_max":444,"o":"m 407 294 l 343 294 l 318 0 l 233 0 l 258 294 l 181 294 l 156 0 l 71 0 l 96 294 l 25 294 l 32 372 l 103 372 l 122 597 l 53 597 l 60 674 l 129 674 l 156 971 l 240 971 l 214 674 l 290 674 l 317 971 l 401 971 l 375 674 l 444 674 l 435 597 l 369 597 l 350 372 l 417 372 l 407 294 m 188 372 l 265 372 l 285 597 l 207 597 l 188 372 z "},"[":{"ha":263,"x_min":22,"x_max":201,"o":"m 22 -78 l 22 1049 l 201 1049 l 201 969 l 117 969 l 117 1 l 201 1 l 201 -78 l 22 -78 z "},"]":{"ha":263,"x_min":61,"x_max":239,"o":"m 61 -78 l 61 1 l 144 1 l 144 969 l 61 969 l 61 1049 l 239 1049 l 239 -78 l 61 -78 z "},"(":{"ha":294,"x_min":22,"x_max":233,"o":"m 164 -50 q 109 -42 135 -50 q 64 -14 83 -33 q 33 38 44 6 q 22 119 22 71 l 22 851 q 33 933 22 900 q 64 985 44 965 q 109 1013 83 1004 q 164 1021 135 1021 l 233 1021 l 233 942 l 196 942 q 133 908 149 942 q 117 804 117 875 l 117 167 q 133 63 117 96 q 196 29 149 29 l 233 29 l 233 -50 l 164 -50 z "},")":{"ha":294,"x_min":61,"x_max":272,"o":"m 61 -50 l 61 29 l 99 29 q 162 63 146 29 q 178 167 178 96 l 178 804 q 162 908 178 875 q 99 942 146 942 l 61 942 l 61 1021 l 131 1021 q 185 1013 160 1021 q 231 985 211 1004 q 261 933 250 965 q 272 851 272 900 l 272 119 q 261 38 272 71 q 231 -14 250 6 q 185 -42 211 -33 q 131 -50 160 -50 l 61 -50 z "},"{":{"ha":311,"x_min":14,"x_max":256,"o":"m 29 533 q 78 558 64 533 q 92 621 92 582 l 92 913 q 102 980 92 951 q 130 1027 113 1008 q 169 1054 147 1046 q 217 1063 192 1063 l 256 1063 l 256 983 l 249 983 q 199 958 211 983 q 186 896 186 932 l 186 624 q 176 565 186 589 q 150 526 167 542 q 113 504 133 511 q 69 496 92 497 q 113 488 92 494 q 150 465 133 481 q 176 426 167 450 q 186 368 186 401 l 186 96 q 199 34 186 60 q 249 8 211 8 l 256 8 l 256 -71 l 217 -71 q 169 -62 192 -71 q 130 -35 147 -54 q 102 11 113 -17 q 92 79 92 39 l 92 371 q 78 434 92 410 q 29 458 64 458 l 14 458 l 14 533 l 29 533 z "},"}":{"ha":311,"x_min":56,"x_max":297,"o":"m 297 533 l 297 458 l 282 458 q 233 434 247 458 q 219 371 219 410 l 219 79 q 209 11 219 39 q 181 -35 199 -17 q 142 -62 164 -54 q 94 -71 119 -71 l 56 -71 l 56 8 l 63 8 q 113 34 101 8 q 125 96 125 60 l 125 368 q 135 426 125 401 q 160 465 144 450 q 197 488 176 481 q 240 496 218 494 q 197 504 218 497 q 160 526 176 511 q 135 565 144 542 q 125 624 125 589 l 125 896 q 113 958 125 932 q 63 983 101 983 l 56 983 l 56 1063 l 94 1063 q 142 1054 119 1063 q 181 1027 164 1046 q 209 980 199 1008 q 219 913 219 951 l 219 621 q 233 558 219 582 q 282 533 247 533 l 297 533 z "},"@":{"ha":551,"x_min":22,"x_max":529,"o":"m 253 -8 q 147 10 190 -8 q 75 60 103 29 q 35 127 47 90 q 22 200 22 164 l 22 618 q 35 691 22 654 q 75 758 47 728 q 147 808 103 789 q 253 826 190 826 l 299 826 q 405 808 361 826 q 476 758 449 789 q 517 691 504 728 q 529 618 529 654 l 529 214 q 502 160 529 179 q 440 138 475 142 q 371 144 404 133 q 324 183 338 156 q 285 149 306 163 q 244 136 265 136 l 242 136 q 175 170 193 136 q 157 264 157 204 l 157 551 q 176 645 157 611 q 243 679 196 679 l 249 679 q 285 669 267 679 q 318 640 303 658 l 333 679 l 394 679 l 394 251 q 402 224 394 232 q 419 215 410 215 q 435 224 428 215 q 443 251 443 233 l 443 614 q 438 657 443 632 q 419 703 433 682 q 376 740 404 725 q 300 756 347 756 l 251 756 q 176 740 204 756 q 133 703 147 725 q 113 657 118 682 q 108 613 108 632 l 108 206 q 113 161 108 186 q 133 115 118 136 q 176 78 147 93 q 251 63 204 63 l 300 63 q 377 78 350 63 q 415 110 404 94 l 479 63 q 415 15 457 38 q 299 -8 374 -8 l 253 -8 m 279 210 q 305 226 293 210 q 317 272 317 243 l 317 551 q 303 592 314 578 q 279 606 292 606 l 276 606 q 253 592 263 606 q 244 549 244 579 l 244 267 q 253 224 244 238 q 276 210 263 210 l 279 210 z "},"&":{"ha":317,"x_min":22,"x_max":294,"o":"m 194 533 l 194 465 l 163 465 q 128 444 140 465 q 117 386 117 424 l 117 140 q 128 85 117 101 q 154 69 139 69 l 163 69 q 189 85 178 69 q 200 140 200 101 l 200 392 l 294 392 l 294 126 q 262 30 294 61 q 189 -7 229 -1 l 189 -79 l 126 -79 l 126 -6 q 54 31 86 0 q 22 126 22 63 l 22 383 q 49 467 22 442 q 111 500 75 493 q 49 537 75 508 q 22 624 22 565 l 22 843 q 54 938 22 907 q 126 976 86 969 l 126 1050 l 189 1050 l 189 978 q 262 940 229 971 q 294 843 294 908 l 294 578 l 200 578 l 200 831 q 189 884 200 868 q 163 900 178 900 l 154 900 q 128 885 139 900 q 117 829 117 869 l 117 613 q 163 533 117 533 l 194 533 z "},"˜":{"ha":310,"x_min":39,"x_max":271,"o":"m 39 874 q 68 910 51 899 q 101 921 85 921 q 147 907 125 921 q 193 893 169 893 q 229 913 210 893 l 271 886 q 240 850 256 860 q 206 840 224 840 q 159 853 181 840 q 118 867 138 867 q 98 863 107 867 q 78 847 89 858 l 39 874 z "},"+":{"ha":403,"x_min":25,"x_max":378,"o":"m 165 518 l 165 692 l 238 692 l 238 518 l 378 518 l 378 454 l 238 454 l 238 281 l 165 281 l 165 454 l 25 454 l 25 518 l 165 518 z "},"-":{"ha":339,"x_min":25,"x_max":314,"o":"m 314 518 l 314 454 l 25 454 l 25 518 l 314 518 z "},"–":{"ha":453,"x_min":25,"x_max":428,"o":"m 428 454 l 25 454 l 25 518 l 428 518 l 428 454 z "},"—":{"ha":646,"x_min":25,"x_max":622,"o":"m 622 454 l 25 454 l 25 518 l 622 518 l 622 454 z "},"_":{"ha":446,"x_min":25,"x_max":421,"o":"m 421 0 l 25 0 l 25 64 l 421 64 l 421 0 z "},"=":{"ha":417,"x_min":25,"x_max":392,"o":"m 392 596 l 392 532 l 25 532 l 25 596 l 392 596 m 392 444 l 392 381 l 25 381 l 25 444 l 392 444 z "},"•":{"ha":192,"x_min":22,"x_max":168,"o":"m 96 272 q 43 294 64 272 q 22 344 22 317 q 45 399 22 379 q 96 418 68 418 q 149 394 129 418 q 168 344 168 371 q 145 291 168 310 q 96 272 122 272 z "},"¡":{"ha":174,"x_min":39,"x_max":135,"o":"m 135 843 l 39 843 l 39 971 l 135 971 l 135 843 m 133 372 l 133 0 l 39 0 l 39 372 l 51 799 l 121 799 l 133 372 z "},"†":{"ha":278,"x_min":25,"x_max":253,"o":"m 182 971 l 182 604 l 253 604 l 253 531 l 182 531 l 182 -229 l 94 -229 l 94 531 l 25 531 l 25 604 l 94 604 l 94 971 l 182 971 z "},"‡":{"ha":278,"x_min":25,"x_max":253,"o":"m 182 971 l 182 604 l 253 604 l 253 531 l 182 531 l 182 211 l 253 211 l 253 138 l 182 138 l 182 -229 l 94 -229 l 94 138 l 25 138 l 25 211 l 94 211 l 94 531 l 25 531 l 25 604 l 94 604 l 94 971 l 182 971 z "},"›":{"ha":200,"x_min":25,"x_max":175,"o":"m 25 60 l 92 338 l 29 618 l 111 618 l 175 339 l 108 60 l 25 60 z "},"‹":{"ha":200,"x_min":25,"x_max":175,"o":"m 92 60 l 25 339 l 89 618 l 171 618 l 107 338 l 175 60 l 92 60 z "},"ˆ":{"ha":296,"x_min":25,"x_max":271,"o":"m 190 938 l 271 818 l 189 818 l 149 893 l 108 818 l 25 818 l 106 938 l 190 938 z "},"°":{"ha":169,"x_min":21,"x_max":149,"o":"m 85 843 q 40 862 58 843 q 21 907 21 881 q 40 952 21 933 q 85 971 58 971 q 130 952 111 971 q 149 907 149 933 q 130 862 149 881 q 85 843 111 843 m 85 950 q 55 938 67 950 q 43 907 43 925 q 55 877 43 889 q 85 865 67 865 q 115 877 103 865 q 128 907 128 889 q 115 938 128 925 q 85 950 103 950 z "},"'":{"ha":182,"x_min":47,"x_max":143,"o":"m 143 843 l 110 758 l 69 758 l 90 843 l 47 843 l 47 971 l 143 971 l 143 843 z "},"\"":{"ha":339,"x_min":47,"x_max":300,"o":"m 143 843 l 110 758 l 69 758 l 90 843 l 47 843 l 47 971 l 143 971 l 143 843 m 300 843 l 267 758 l 226 758 l 247 843 l 204 843 l 204 971 l 300 971 l 300 843 z "},"‚":{"ha":182,"x_min":47,"x_max":143,"o":"m 143 0 l 110 -83 l 69 -83 l 90 0 l 47 0 l 47 128 l 143 128 l 143 0 z "},"„":{"ha":339,"x_min":47,"x_max":300,"o":"m 143 0 l 110 -83 l 69 -83 l 90 0 l 47 0 l 47 129 l 143 129 l 143 0 m 300 0 l 267 -83 l 226 -83 l 247 0 l 204 0 l 204 129 l 300 129 l 300 0 z "},"~":{"ha":410,"x_min":25,"x_max":385,"o":"m 25 325 q 72 383 49 365 q 124 401 94 401 q 159 394 142 401 q 193 378 176 386 q 226 362 210 369 q 263 354 243 354 q 294 364 281 354 q 326 399 307 374 l 385 354 q 339 293 363 310 q 281 276 315 276 q 243 284 261 276 q 208 300 225 292 q 175 316 192 308 q 144 324 158 324 q 111 315 125 324 q 78 281 97 306 l 25 325 z "},"´":{"ha":217,"x_min":39,"x_max":178,"o":"m 39 818 l 94 938 l 178 938 l 97 818 l 39 818 z "},"`":{"ha":217,"x_min":39,"x_max":178,"o":"m 119 818 l 39 938 l 122 938 l 178 818 l 119 818 z "},"¨":{"ha":249,"x_min":39,"x_max":210,"o":"m 101 833 l 39 833 l 39 928 l 101 928 l 101 833 m 210 833 l 147 833 l 147 928 l 210 928 l 210 833 z "},"˚":{"ha":251,"x_min":39,"x_max":213,"o":"m 125 789 q 65 815 92 789 q 39 874 39 840 q 64 937 39 910 q 124 964 89 964 q 186 938 160 964 q 213 874 213 911 q 187 815 213 842 q 125 789 161 789 m 125 914 q 98 902 110 914 q 86 875 86 890 q 98 849 86 860 q 125 838 110 838 q 152 849 140 838 q 164 875 164 860 q 152 902 164 890 q 125 914 140 914 z "},"ˇ":{"ha":324,"x_min":39,"x_max":285,"o":"m 119 819 l 39 939 l 122 939 l 163 864 l 203 939 l 285 939 l 204 819 l 119 819 z "},"˘":{"ha":265,"x_min":39,"x_max":226,"o":"m 93 926 q 104 899 93 911 q 131 888 115 888 q 158 899 146 888 q 171 926 171 911 l 226 926 q 199 862 226 890 q 131 833 171 833 q 67 861 94 833 q 39 926 39 889 l 93 926 z "},"˝":{"ha":325,"x_min":39,"x_max":286,"o":"m 147 815 l 203 935 l 286 935 l 206 815 l 147 815 m 39 815 l 94 935 l 178 935 l 97 815 l 39 815 z "},"˙":{"ha":140,"x_min":39,"x_max":101,"o":"m 101 833 l 39 833 l 39 928 l 101 928 l 101 833 z "},"˛":{"ha":218,"x_min":39,"x_max":179,"o":"m 179 -90 q 144 -126 167 -115 q 97 -133 121 -136 q 56 -115 74 -131 q 39 -71 39 -99 q 78 0 39 -31 l 146 0 q 106 -26 122 -7 q 92 -60 90 -44 q 113 -87 92 -85 q 147 -69 133 -90 l 179 -90 z "},"¸":{"ha":250,"x_min":39,"x_max":211,"o":"m 39 -132 l 49 -90 q 79 -103 61 -99 q 113 -105 97 -107 q 138 -94 128 -103 q 147 -71 149 -86 q 126 -49 144 -54 q 93 -56 108 -44 l 74 -47 l 99 0 l 150 0 l 139 -29 q 188 -30 164 -18 q 211 -69 211 -42 q 190 -124 211 -106 q 140 -149 168 -143 q 83 -150 111 -156 q 39 -132 54 -144 z "},"B":{"ha":317,"x_min":25,"x_max":297,"o":"m 297 593 q 283 527 297 549 q 249 499 269 506 q 283 472 269 493 q 297 406 297 450 l 297 129 q 286 71 297 96 q 258 31 275 46 q 217 8 240 15 q 172 0 194 0 l 25 0 l 25 971 l 172 971 q 217 963 194 971 q 258 939 240 956 q 286 897 275 922 q 297 835 297 871 l 297 593 m 203 399 q 169 464 203 464 l 119 464 l 119 79 l 164 79 q 192 94 181 79 q 203 143 203 110 l 203 399 m 171 533 q 203 599 203 533 l 203 821 q 192 875 203 858 q 165 892 181 892 l 119 892 l 119 533 l 171 533 z "},"C":{"ha":317,"x_min":22,"x_max":294,"o":"m 147 -8 q 101 -1 124 -8 q 62 24 79 7 q 33 66 44 40 q 22 128 22 92 l 22 843 q 33 905 22 879 q 62 947 44 931 q 101 972 79 964 q 147 979 124 979 l 169 979 q 215 972 192 979 q 255 947 238 964 q 283 905 272 931 q 294 843 294 879 l 294 579 l 200 579 l 200 831 q 189 884 200 868 q 163 900 178 900 l 154 900 q 128 885 139 900 q 117 829 117 869 l 117 142 q 128 87 117 103 q 154 71 139 71 l 163 71 q 189 87 178 71 q 200 142 200 103 l 200 393 l 294 393 l 294 128 q 283 66 294 92 q 255 24 272 40 q 215 -1 238 7 q 169 -8 192 -8 l 147 -8 z "},"A":{"ha":310,"x_min":4,"x_max":307,"o":"m 193 263 l 108 263 l 85 0 l 4 0 l 93 971 l 213 971 l 307 0 l 217 0 l 193 263 m 114 333 l 186 333 l 153 710 l 149 710 l 114 333 z "},"±":{"ha":403,"x_min":25,"x_max":378,"o":"m 165 626 l 165 800 l 238 800 l 238 626 l 378 626 l 378 563 l 238 563 l 238 389 l 165 389 l 165 563 l 25 563 l 25 626 l 165 626 m 335 90 l 68 90 l 68 154 l 335 154 l 335 90 z "},"ı":{"ha":133,"x_min":25,"x_max":113,"o":"m 113 688 l 113 0 l 25 0 l 25 688 l 113 688 z "},"·":{"ha":174,"x_min":39,"x_max":135,"o":"m 135 279 l 39 279 l 39 407 l 135 407 l 135 279 z "},"¯":{"ha":274,"x_min":42,"x_max":226,"o":"m 226 847 l 42 847 l 42 913 l 226 913 l 226 847 z "},"E":{"ha":263,"x_min":25,"x_max":250,"o":"m 119 892 l 119 521 l 215 521 l 215 450 l 119 450 l 119 79 l 250 79 l 250 0 l 25 0 l 25 971 l 243 971 l 243 892 l 119 892 z "},"F":{"ha":256,"x_min":25,"x_max":243,"o":"m 119 892 l 119 521 l 215 521 l 215 450 l 119 450 l 119 0 l 25 0 l 25 971 l 243 971 l 243 892 l 119 892 z "},"G":{"ha":317,"x_min":22,"x_max":294,"o":"m 147 -8 q 101 -1 124 -8 q 62 24 79 7 q 33 66 44 40 q 22 128 22 92 l 22 843 q 33 905 22 879 q 62 947 44 931 q 101 972 79 964 q 147 979 124 979 l 169 979 q 215 972 192 979 q 255 947 238 964 q 283 905 272 931 q 294 843 294 879 l 294 579 l 200 579 l 200 831 q 189 884 200 868 q 163 900 178 900 l 154 900 q 128 885 139 900 q 117 829 117 869 l 117 142 q 128 87 117 103 q 154 71 139 71 l 163 71 q 189 87 178 71 q 200 142 200 103 l 200 314 l 158 314 l 158 393 l 294 393 l 294 0 l 249 0 l 238 32 q 196 2 218 13 q 156 -8 174 -8 l 147 -8 z "},"¿":{"ha":308,"x_min":22,"x_max":286,"o":"m 286 161 l 286 -101 q 276 -163 286 -137 q 247 -206 265 -189 q 207 -230 229 -222 q 163 -237 185 -237 l 149 -237 q 103 -230 125 -237 q 63 -206 81 -222 q 33 -163 44 -189 q 22 -101 22 -137 l 22 51 q 33 136 22 99 q 60 208 44 174 q 92 278 75 243 q 121 354 108 313 q 137 448 133 396 q 131 569 140 500 l 225 569 q 231 435 235 492 q 215 335 228 379 q 186 257 203 292 q 154 188 169 222 q 128 118 139 154 q 117 36 117 82 l 117 -87 q 128 -143 117 -128 q 154 -158 139 -158 l 163 -158 q 189 -142 178 -158 q 200 -89 200 -126 l 200 161 l 286 161 m 129 742 l 225 742 l 225 614 l 129 614 l 129 742 z "},"¶":{"ha":431,"x_min":22,"x_max":406,"o":"m 335 900 l 249 900 l 249 -229 l 178 -229 l 178 550 q 111 569 140 550 q 62 617 82 588 q 32 685 42 647 q 22 760 22 722 q 32 835 22 797 q 62 903 42 874 q 111 952 82 933 q 178 971 140 971 l 406 971 l 406 -229 l 335 -229 l 335 900 z "},"¬":{"ha":436,"x_min":25,"x_max":411,"o":"m 411 315 l 342 315 l 342 454 l 25 454 l 25 518 l 411 518 l 411 315 z "},"Þ":{"ha":304,"x_min":25,"x_max":282,"o":"m 119 971 l 119 831 l 169 831 q 249 797 217 831 q 282 703 282 764 l 282 264 q 249 169 282 203 q 169 135 217 135 l 119 135 l 119 0 l 25 0 l 25 971 l 119 971 m 119 758 l 119 208 l 161 208 q 183 222 174 208 q 193 265 193 236 l 193 701 q 183 744 193 731 q 161 758 174 758 l 119 758 z "},"þ":{"ha":300,"x_min":25,"x_max":282,"o":"m 119 971 l 119 692 l 169 692 q 249 658 217 692 q 282 564 282 624 l 282 124 q 249 30 282 64 q 169 -4 217 -4 l 119 -4 l 119 -229 l 25 -229 l 25 971 l 119 971 m 119 618 l 119 69 l 161 69 q 183 83 174 69 q 193 126 193 96 l 193 561 q 183 604 193 590 q 161 618 174 618 l 119 618 z "},"©":{"ha":686,"x_min":21,"x_max":668,"o":"m 21 483 q 35 672 21 583 q 85 827 49 761 q 187 931 122 893 q 351 969 251 969 q 514 931 451 969 q 610 827 576 893 q 656 672 644 761 q 668 483 668 583 q 656 294 668 383 q 610 140 644 206 q 514 35 576 74 q 351 -3 451 -3 q 187 35 251 -3 q 85 140 122 74 q 35 294 49 206 q 21 483 21 383 m 78 483 q 88 319 78 396 q 126 183 97 242 q 210 92 156 125 q 351 58 264 58 q 490 92 439 58 q 569 183 542 125 q 603 319 596 242 q 611 483 611 396 q 603 648 611 571 q 569 783 596 725 q 490 875 542 842 q 351 908 439 908 q 210 875 264 908 q 126 783 156 842 q 88 648 97 725 q 78 483 78 571 m 388 547 l 388 649 q 378 692 388 678 q 356 706 369 706 l 349 706 q 325 692 335 706 q 315 649 315 678 l 315 325 q 325 281 315 294 q 346 268 335 268 l 356 268 q 378 281 369 268 q 388 325 388 294 l 388 429 l 475 429 l 475 324 q 442 228 475 261 q 363 194 410 194 l 338 194 q 260 228 293 194 q 228 324 228 263 l 228 650 q 260 746 228 713 q 340 779 292 779 l 363 779 q 442 746 410 779 q 475 651 475 713 l 475 547 l 388 547 z "},"®":{"ha":438,"x_min":25,"x_max":413,"o":"m 25 731 q 37 827 25 782 q 73 906 49 872 q 134 960 97 940 q 222 979 171 979 q 310 960 274 979 q 369 906 346 940 q 402 827 392 872 q 413 731 413 782 q 402 634 413 679 q 369 555 392 589 q 310 501 346 521 q 222 482 274 482 q 134 501 171 482 q 73 555 97 521 q 37 634 49 589 q 25 731 25 679 m 65 731 q 74 647 65 686 q 100 579 82 608 q 148 533 118 550 q 222 517 178 517 q 296 533 267 517 q 342 579 325 550 q 365 647 358 608 q 372 731 372 686 q 365 813 372 774 q 342 881 358 851 q 296 927 325 910 q 222 944 267 944 q 148 927 178 944 q 100 881 118 910 q 74 813 82 851 q 65 731 65 774 m 288 769 q 265 722 288 732 q 288 676 288 714 l 288 600 l 246 600 l 246 664 q 226 699 246 699 l 206 699 l 206 600 l 163 600 l 163 874 l 236 874 q 275 853 263 874 q 288 797 288 833 l 288 769 m 226 742 q 246 778 246 742 l 246 794 q 240 822 246 814 q 225 831 233 831 l 206 831 l 206 742 l 226 742 z "},"ƒ":{"ha":310,"x_min":25,"x_max":285,"o":"m 199 614 l 199 -110 q 188 -167 199 -140 q 156 -211 178 -193 q 101 -235 133 -229 q 25 -232 68 -242 l 25 -162 q 53 -163 38 -165 q 81 -154 68 -161 q 103 -135 94 -147 q 111 -103 111 -122 l 111 614 l 28 614 l 28 688 l 111 688 l 111 853 q 122 908 111 882 q 154 953 132 935 q 208 977 176 971 q 285 974 240 983 l 285 904 q 257 904 272 906 q 228 896 242 903 q 207 876 215 889 q 199 846 199 864 l 199 688 l 282 688 l 282 614 l 199 614 z "},"Œ":{"ha":461,"x_min":22,"x_max":436,"o":"m 147 -8 q 101 -1 124 -8 q 62 24 79 7 q 33 66 44 40 q 22 128 22 92 l 22 843 q 33 905 22 879 q 62 947 44 931 q 101 972 79 964 q 147 979 124 979 l 169 979 l 178 979 l 428 979 l 428 896 l 286 896 q 294 843 294 872 l 294 521 l 401 521 l 401 450 l 294 450 l 294 128 q 286 75 294 97 l 436 75 l 436 -8 l 178 -8 l 169 -8 l 147 -8 m 154 900 q 128 883 139 900 q 117 829 117 867 l 117 142 q 128 87 117 103 q 154 71 139 71 l 163 71 q 189 87 178 71 q 200 142 200 103 l 200 829 q 189 883 200 867 q 163 900 178 900 l 154 900 z "},"œ":{"ha":446,"x_min":21,"x_max":428,"o":"m 133 -4 q 53 30 85 -4 q 21 124 21 64 l 21 564 q 53 658 22 624 q 133 692 85 692 l 156 692 q 224 668 193 692 q 292 692 251 692 l 314 692 q 395 658 363 692 q 428 564 428 625 l 428 324 l 268 324 l 268 126 q 278 83 268 96 q 299 69 288 69 l 308 69 q 331 83 321 69 q 340 126 340 96 l 340 286 l 428 286 l 428 125 q 395 29 428 63 q 314 -4 363 -4 l 289 -4 q 224 19 251 -4 q 156 -4 193 -4 l 133 -4 m 142 618 q 118 604 128 618 q 108 561 108 590 l 108 126 q 118 83 108 96 q 142 69 128 69 l 149 69 q 172 83 163 69 q 181 125 181 96 l 181 561 q 172 604 181 590 q 149 618 163 618 l 142 618 m 268 385 l 340 385 l 340 561 q 331 604 340 590 q 308 618 321 618 l 301 618 q 278 605 288 618 q 268 564 268 592 l 268 385 z "},"€":{"ha":361,"x_min":25,"x_max":339,"o":"m 236 418 l 161 418 l 161 142 q 172 87 161 103 q 199 71 183 71 l 207 71 q 233 87 222 71 q 244 142 244 103 l 244 393 l 339 393 l 339 128 q 328 66 339 92 q 299 24 317 40 q 259 -1 282 7 q 214 -8 236 -8 l 192 -8 q 146 -1 168 -8 q 106 24 124 7 q 78 66 89 40 q 67 128 67 92 l 67 418 l 25 418 l 25 458 l 67 458 l 67 515 l 25 515 l 25 554 l 67 554 l 67 843 q 78 905 67 879 q 106 947 89 931 q 146 972 124 964 q 192 979 168 979 l 214 979 q 259 972 236 979 q 299 947 282 964 q 328 905 317 931 q 339 843 339 879 l 339 579 l 244 579 l 244 831 q 233 884 244 868 q 207 900 222 900 l 199 900 q 172 885 183 900 q 161 829 161 869 l 161 554 l 236 554 l 236 515 l 161 515 l 161 458 l 236 458 l 236 418 z "},"™":{"ha":376,"x_min":28,"x_max":350,"o":"m 350 971 l 350 544 l 311 544 l 311 835 l 310 835 l 278 544 l 244 544 l 213 835 l 213 544 l 171 544 l 171 971 l 236 971 l 263 676 l 264 676 l 290 971 l 350 971 m 149 926 l 114 926 l 114 544 l 63 544 l 63 926 l 28 926 l 28 971 l 149 971 l 149 926 z "},"¢":{"ha":286,"x_min":21,"x_max":268,"o":"m 181 404 l 181 561 q 172 604 181 590 q 149 618 163 618 l 142 618 q 118 604 128 618 q 108 561 108 590 l 108 126 q 118 83 108 96 q 139 69 128 69 l 149 69 q 172 83 163 69 q 181 126 181 96 l 181 286 l 268 286 l 268 125 q 242 38 268 71 q 178 -1 217 6 l 178 -83 l 115 -83 l 115 -3 q 48 36 75 3 q 21 125 21 69 l 21 563 q 47 651 21 618 q 115 690 74 683 l 115 771 l 178 771 l 178 689 q 242 649 217 682 q 268 564 268 617 l 268 404 l 181 404 z "},"µ":{"ha":289,"x_min":19,"x_max":268,"o":"m 268 0 l 181 0 l 181 35 q 145 6 164 17 q 108 -4 126 -4 l 107 -4 l 107 -228 l 19 -228 l 19 688 l 107 688 l 107 126 q 116 83 107 96 q 139 69 125 69 l 142 69 q 169 87 157 69 q 181 133 181 104 l 181 688 l 268 688 l 268 0 z "},"Æ":{"ha":436,"x_min":4,"x_max":424,"o":"m 293 892 l 293 521 l 389 521 l 389 450 l 293 450 l 293 79 l 424 79 l 424 0 l 199 0 l 199 263 l 104 263 l 85 0 l 4 0 l 93 971 l 417 971 l 417 892 l 293 892 m 110 333 l 199 333 l 199 892 l 154 892 l 110 333 z "},"æ":{"ha":446,"x_min":21,"x_max":428,"o":"m 100 -4 q 36 30 51 -4 q 21 124 21 64 l 21 257 q 40 351 21 317 q 106 385 58 385 l 110 385 q 144 376 126 385 q 181 356 163 368 l 181 563 l 181 568 l 181 569 q 169 606 178 594 q 147 618 160 618 l 140 618 q 117 604 126 618 q 108 561 108 590 l 108 404 l 21 404 l 21 564 q 53 658 21 625 q 133 692 86 692 l 156 692 q 224 668 196 692 q 292 692 254 692 l 314 692 q 395 658 363 692 q 428 564 428 625 l 428 324 l 268 324 l 268 126 q 278 83 268 96 q 299 69 288 69 l 308 69 q 331 83 321 69 q 340 126 340 96 l 340 286 l 428 286 l 428 125 q 395 29 428 63 q 314 -4 363 -4 l 289 -4 q 239 8 261 -4 q 201 44 217 21 q 153 9 179 22 q 104 -4 128 -4 l 100 -4 m 140 319 q 117 306 126 319 q 108 263 108 292 l 108 118 q 117 74 108 88 q 140 61 126 61 l 143 61 q 169 74 158 61 q 181 118 181 88 l 181 288 q 170 313 181 306 q 150 319 160 319 l 140 319 m 268 563 l 268 385 l 340 385 l 340 561 q 331 604 340 590 q 308 618 321 618 l 301 618 q 279 606 289 618 q 268 568 269 593 l 268 563 z "},"÷":{"ha":485,"x_min":22,"x_max":463,"o":"m 463 453 l 22 453 l 22 518 l 463 518 l 463 453 m 290 563 l 194 563 l 194 690 l 290 690 l 290 563 m 290 279 l 194 279 l 194 407 l 290 407 l 290 279 z "},"¤":{"ha":488,"x_min":22,"x_max":465,"o":"m 361 324 q 244 286 308 286 q 125 325 179 286 l 69 269 l 22 318 l 78 372 q 40 492 40 425 q 79 608 40 557 l 24 664 l 71 711 l 126 656 q 182 684 151 674 q 244 694 213 694 q 306 684 276 694 q 361 656 336 674 l 417 713 l 465 665 l 408 608 q 437 553 426 583 q 447 492 447 524 q 437 428 447 458 q 408 372 426 397 l 465 317 l 418 269 l 361 324 m 111 492 q 149 395 111 433 q 244 357 188 357 q 339 395 301 357 q 376 492 376 433 q 339 585 376 547 q 244 622 301 622 q 149 585 188 622 q 111 492 111 547 z "},"£":{"ha":385,"x_min":22,"x_max":363,"o":"m 22 426 l 90 426 l 90 843 q 101 905 90 879 q 130 947 113 931 q 169 972 147 964 q 215 979 192 979 l 238 979 q 283 972 260 979 q 323 947 306 964 q 351 905 340 931 q 363 843 363 879 l 363 579 l 268 579 l 268 831 q 257 884 268 868 q 231 900 246 900 l 222 900 q 196 885 207 900 q 185 829 185 869 l 185 426 l 363 426 l 363 346 l 185 346 l 185 233 q 178 132 185 168 q 161 81 171 96 l 363 81 l 363 0 l 65 0 l 65 81 l 68 81 q 85 129 79 96 q 90 232 90 163 l 90 346 l 22 346 l 22 426 z "},"¥":{"ha":314,"x_min":6,"x_max":308,"o":"m 110 267 l 110 329 l 13 329 l 13 393 l 104 393 l 6 971 l 100 971 l 156 578 l 158 578 l 215 971 l 308 971 l 210 393 l 296 393 l 296 329 l 206 329 l 204 267 l 296 267 l 296 203 l 204 203 l 204 0 l 110 0 l 110 203 l 13 203 l 13 267 l 110 267 z "},"Ł":{"ha":321,"x_min":4,"x_max":307,"o":"m 189 971 l 189 585 l 274 646 l 307 589 l 189 504 l 189 71 l 307 71 l 307 0 l 96 0 l 96 438 l 38 396 l 4 453 l 96 518 l 96 971 l 189 971 z "},"ł":{"ha":269,"x_min":4,"x_max":265,"o":"m 76 396 l 38 368 l 4 425 l 76 476 l 76 971 l 163 971 l 163 539 l 232 589 l 265 533 l 163 458 l 163 0 l 76 0 l 76 396 z "},"Đ":{"ha":351,"x_min":25,"x_max":328,"o":"m 57 0 l 57 453 l 25 453 l 25 519 l 57 519 l 57 971 l 204 971 q 249 964 226 971 q 289 941 271 957 q 317 900 307 925 q 328 839 328 875 l 328 132 q 317 71 328 96 q 289 30 307 46 q 249 7 271 14 q 204 0 226 0 l 57 0 m 150 892 l 150 519 l 182 519 l 182 453 l 150 453 l 150 79 l 196 79 q 224 94 213 79 q 235 146 235 108 l 235 825 q 224 877 235 863 q 196 892 213 892 l 150 892 z "},"×":{"ha":349,"x_min":4,"x_max":344,"o":"m 124 486 l 4 606 l 54 657 l 174 536 l 294 657 l 344 606 l 225 486 l 344 367 l 294 315 l 174 435 l 54 315 l 4 367 l 124 486 z "},"¦":{"ha":154,"x_min":33,"x_max":121,"o":"m 33 407 l 121 407 l 121 -42 l 33 -42 l 33 407 m 33 1013 l 121 1013 l 121 567 l 33 567 l 33 1013 z "},"§":{"ha":286,"x_min":21,"x_max":267,"o":"m 181 646 l 181 849 q 171 891 181 876 q 147 906 161 906 l 142 906 q 118 891 128 906 q 108 849 108 876 l 108 719 q 120 667 108 690 q 149 622 132 643 q 188 582 167 601 q 226 540 208 563 q 255 492 243 518 q 267 432 267 465 l 267 336 q 240 249 267 282 q 174 210 214 217 q 206 176 190 193 q 236 140 222 160 q 258 98 250 121 q 267 46 267 75 l 267 -110 q 235 -203 267 -169 q 156 -237 203 -237 l 135 -237 q 53 -203 86 -237 q 21 -110 21 -169 l 21 114 l 100 114 l 100 -107 q 110 -149 100 -135 q 138 -164 121 -164 l 144 -164 q 170 -149 160 -164 q 181 -107 181 -135 l 181 40 q 156 114 181 83 q 101 174 131 144 q 46 240 71 204 q 21 328 21 275 l 21 431 q 44 513 21 481 q 104 554 68 544 q 47 622 72 586 q 21 713 21 657 l 21 851 q 53 945 21 911 q 133 979 85 979 l 146 979 q 226 945 194 979 q 258 851 258 911 l 258 646 l 181 646 m 176 457 q 147 485 168 485 l 142 485 q 118 470 128 485 q 108 428 108 456 l 108 333 q 117 288 108 308 q 138 281 124 281 l 144 281 q 170 295 160 281 q 181 338 181 310 l 181 426 l 181 428 l 181 435 l 176 457 z "},"²":{"ha":165,"x_min":21,"x_max":142,"o":"m 21 800 l 21 919 q 38 965 21 951 q 75 979 56 979 l 85 979 q 122 965 104 979 q 139 919 139 951 l 139 849 q 127 794 139 818 q 102 741 115 769 q 77 674 89 713 q 65 581 65 636 l 142 581 l 142 544 l 21 544 l 21 579 q 33 681 21 642 q 58 750 44 721 q 84 803 72 779 q 96 856 96 826 l 96 913 q 91 937 96 931 q 79 943 86 943 l 76 943 q 65 937 69 943 q 60 913 60 931 l 60 800 l 21 800 z "},"³":{"ha":164,"x_min":21,"x_max":142,"o":"m 79 783 q 99 818 99 783 l 99 913 q 94 937 99 931 q 82 943 89 943 l 79 943 q 68 937 72 943 q 64 914 64 931 l 64 803 l 21 803 l 21 919 q 38 965 21 951 q 75 979 56 979 l 86 979 q 124 965 106 979 q 142 919 142 951 l 142 822 q 130 784 142 797 q 103 768 118 771 q 130 753 118 765 q 142 717 142 742 l 142 604 q 124 558 142 572 q 86 544 106 544 l 75 544 q 38 558 56 544 q 21 604 21 572 l 21 721 l 64 721 l 64 610 q 69 587 64 593 q 81 581 74 581 l 82 581 q 94 587 89 581 q 99 611 99 593 l 99 718 q 79 753 99 753 l 65 753 l 65 783 l 79 783 z "},"¹":{"ha":125,"x_min":19,"x_max":100,"o":"m 57 544 l 57 907 q 39 902 50 904 q 19 900 28 900 l 19 933 q 48 944 35 933 q 64 971 61 956 l 100 971 l 100 544 l 57 544 z "},"ª":{"ha":197,"x_min":21,"x_max":178,"o":"m 71 544 q 31 565 40 544 q 21 624 21 586 l 21 707 q 33 766 21 744 q 75 788 44 788 l 76 788 q 121 769 96 788 l 121 897 q 114 924 121 915 q 99 933 107 933 l 96 933 q 83 924 89 933 q 76 897 76 915 l 76 799 l 21 799 l 21 899 q 41 958 21 938 q 92 979 61 979 l 106 979 q 156 958 135 979 q 178 897 178 936 l 178 547 l 121 547 l 121 563 q 74 544 96 544 l 71 544 m 96 747 q 76 710 76 747 l 76 622 q 83 595 76 604 q 97 586 89 586 q 111 593 104 586 q 121 615 118 600 l 121 725 q 114 742 121 738 q 100 747 107 747 l 96 747 z "},"º":{"ha":165,"x_min":22,"x_max":143,"o":"m 78 544 q 40 558 57 544 q 22 604 22 572 l 22 919 q 40 965 22 951 q 78 979 57 979 l 88 979 q 126 965 108 979 q 143 919 143 951 l 143 604 q 126 558 143 572 q 88 544 108 544 l 78 544 m 82 943 q 65 913 65 943 l 65 611 q 82 581 65 581 l 85 581 q 100 611 100 581 l 100 913 q 85 943 100 943 l 82 943 z "},"¼":{"ha":382,"x_min":32,"x_max":353,"o":"m 307 971 l 353 971 l 78 0 l 32 0 l 307 971 m 332 97 l 332 61 l 313 61 l 314 0 l 276 0 l 275 61 l 194 61 l 193 97 l 260 424 l 311 424 l 313 97 l 332 97 m 81 544 l 81 907 q 62 902 74 904 q 42 900 50 900 l 42 933 q 71 944 57 933 q 88 971 85 956 l 124 971 l 124 544 l 81 544 m 275 308 l 274 308 l 233 99 l 233 97 l 275 97 l 275 308 z "},"½":{"ha":392,"x_min":32,"x_max":360,"o":"m 307 971 l 353 971 l 78 0 l 32 0 l 307 971 m 81 544 l 81 907 q 62 902 74 904 q 42 900 50 900 l 42 933 q 71 944 57 933 q 88 971 85 956 l 124 971 l 124 544 l 81 544 m 239 256 l 239 375 q 256 421 239 407 q 293 435 274 435 l 301 435 q 339 421 321 435 q 357 375 357 407 l 357 304 q 345 249 357 274 q 319 197 333 225 q 294 130 306 168 q 282 36 282 92 l 360 36 l 360 0 l 239 0 l 239 35 q 251 137 239 97 q 276 206 263 176 q 302 258 290 235 q 314 311 314 282 l 314 368 q 308 392 314 386 q 296 399 303 399 l 294 399 q 283 392 288 399 q 278 368 278 386 l 278 256 l 239 256 z "},"¾":{"ha":390,"x_min":32,"x_max":357,"o":"m 307 971 l 353 971 l 78 0 l 32 0 l 307 971 m 294 233 q 314 268 314 233 l 314 365 q 309 389 314 383 q 297 394 304 394 l 294 394 q 283 389 288 394 q 278 367 278 383 l 278 253 l 236 253 l 236 372 q 253 418 236 404 q 290 432 271 432 l 300 432 q 339 418 321 432 q 357 372 357 404 l 357 272 q 344 233 357 246 q 317 218 332 221 q 344 203 332 215 q 357 167 357 192 l 357 51 q 339 6 357 19 q 300 -8 321 -8 l 290 -8 q 253 6 271 -8 q 236 51 236 19 l 236 171 l 278 171 l 278 57 q 283 34 278 40 q 294 28 288 28 l 297 28 q 309 34 304 28 q 314 58 314 40 l 314 168 q 294 203 314 203 l 279 203 l 279 233 l 294 233 m 81 544 l 81 907 q 62 902 74 904 q 42 900 50 900 l 42 933 q 71 944 57 933 q 88 971 85 956 l 124 971 l 124 544 l 81 544 z "},"ß":{"ha":344,"x_min":25,"x_max":322,"o":"m 322 624 q 296 537 322 565 q 233 500 269 508 q 295 467 268 493 q 322 383 322 440 l 322 136 q 311 74 322 100 q 283 32 300 49 q 242 8 265 15 q 197 0 219 0 l 150 0 l 150 79 l 182 79 q 213 94 197 79 q 228 150 228 110 l 228 386 q 216 444 228 424 q 182 465 204 465 l 150 465 l 150 533 l 182 533 q 228 613 228 533 l 228 829 q 213 885 228 869 q 182 900 197 900 l 165 900 q 135 884 150 900 q 119 831 119 868 l 119 0 l 25 0 l 25 843 q 38 905 25 879 q 69 947 50 931 q 111 972 88 964 q 158 979 135 979 l 189 979 q 235 972 211 979 q 278 947 260 964 q 310 905 297 931 q 322 843 322 879 l 322 624 l 322 624 z "},"Ø":{"ha":415,"x_min":25,"x_max":390,"o":"m 196 -8 q 141 3 168 -8 q 96 40 114 14 l 79 -14 l 25 -14 l 71 132 l 71 843 q 82 905 71 879 q 110 947 93 931 q 150 972 128 964 q 196 979 172 979 l 218 979 q 273 967 246 979 q 319 928 300 954 l 338 985 l 390 985 l 343 833 l 343 128 q 332 66 343 92 q 303 24 321 40 q 263 -1 286 7 q 218 -8 240 -8 l 196 -8 m 203 900 q 176 883 188 900 q 165 829 165 867 l 165 435 l 249 700 l 249 829 q 238 883 249 867 q 211 900 226 900 l 203 900 m 203 71 l 211 71 q 238 87 226 71 q 249 142 249 103 l 249 531 l 165 263 l 165 142 q 176 87 165 103 q 203 71 188 71 z "},"ø":{"ha":335,"x_min":21,"x_max":314,"o":"m 160 -4 q 88 21 117 -4 l 75 -18 l 21 -18 l 53 79 q 47 124 47 96 l 47 564 q 80 658 49 624 q 160 692 111 692 l 182 692 q 247 669 218 692 l 260 706 l 314 706 l 285 618 q 292 593 290 607 q 294 564 294 579 l 294 124 q 262 30 294 64 q 182 -4 229 -4 l 160 -4 m 168 69 l 175 69 q 198 83 189 69 q 207 126 207 96 l 207 381 l 135 163 l 135 126 q 144 83 135 96 q 168 69 154 69 m 168 618 q 144 604 154 618 q 135 561 135 590 l 135 326 l 207 546 l 207 561 q 198 604 207 590 q 175 618 189 618 l 168 618 z "},"₹":{"ha":431,"x_min":25,"x_max":406,"o":"m 25 781 l 247 781 l 247 824 q 231 881 247 865 q 189 897 215 897 l 25 897 l 25 971 l 406 971 l 406 897 l 326 897 q 335 842 335 872 l 335 781 l 406 781 l 406 707 l 335 707 l 335 586 q 325 532 335 556 q 299 492 315 508 q 261 466 282 475 q 218 457 240 457 l 143 457 l 340 0 l 236 0 l 38 469 l 38 522 l 183 522 q 247 596 247 522 l 247 707 l 25 707 l 25 781 z "},"₦":{"ha":472,"x_min":25,"x_max":447,"o":"m 447 596 l 447 532 l 397 532 l 397 444 l 447 444 l 447 381 l 397 381 l 397 0 l 293 0 l 222 381 l 165 381 l 165 0 l 86 0 l 86 381 l 25 381 l 25 444 l 86 444 l 86 532 l 25 532 l 25 596 l 86 596 l 86 971 l 192 971 l 258 596 l 313 596 l 313 971 l 397 971 l 397 596 l 447 596 m 165 444 l 210 444 l 194 532 l 165 532 l 165 444 m 285 444 l 313 444 l 313 532 l 269 532 l 285 444 m 165 682 l 165 596 l 182 596 l 167 682 l 165 682 m 311 299 l 313 299 l 313 381 l 296 381 l 311 299 z "},"₧":{"ha":417,"x_min":25,"x_max":392,"o":"m 229 971 q 316 937 279 971 q 353 836 353 903 l 353 721 l 392 721 l 392 657 l 353 657 l 353 518 q 319 430 353 456 q 235 404 285 404 l 175 404 l 175 0 l 81 0 l 81 657 l 25 657 l 25 721 l 81 721 l 81 971 l 229 971 m 258 657 l 175 657 l 175 482 l 225 482 q 258 547 258 482 l 258 657 m 175 721 l 258 721 l 258 822 q 247 875 258 858 q 219 892 236 892 l 175 892 l 175 721 z "},"₩":{"ha":590,"x_min":25,"x_max":565,"o":"m 101 436 l 94 540 l 25 540 l 25 604 l 89 604 l 63 971 l 153 971 l 178 604 l 225 604 l 260 971 l 336 971 l 372 604 l 422 604 l 449 971 l 531 971 l 503 604 l 565 604 l 565 540 l 499 540 l 490 436 l 565 436 l 565 372 l 486 372 l 458 0 l 365 0 l 324 372 l 275 372 l 239 0 l 135 0 l 107 372 l 25 372 l 25 436 l 101 436 m 389 436 l 411 436 l 418 540 l 378 540 l 389 436 m 190 436 l 210 436 l 219 540 l 183 540 l 190 436 m 281 436 l 317 436 l 306 540 l 290 540 l 281 436 m 403 324 l 406 372 l 394 372 l 400 324 l 403 324 m 200 324 l 204 372 l 194 372 l 199 324 l 200 324 z "},"₣":{"ha":311,"x_min":25,"x_max":286,"o":"m 163 892 l 163 521 l 258 521 l 258 450 l 163 450 l 163 285 l 206 285 l 206 221 l 163 221 l 163 0 l 68 0 l 68 221 l 25 221 l 25 285 l 68 285 l 68 971 l 286 971 l 286 892 l 163 892 z "},"đ":{"ha":335,"x_min":21,"x_max":324,"o":"m 268 0 l 197 0 l 188 39 q 151 8 171 19 q 113 -4 132 -4 l 108 -4 q 40 30 60 -4 q 21 124 21 64 l 21 564 q 40 658 21 624 q 106 692 58 692 l 110 692 q 146 681 128 692 q 181 653 164 671 l 181 822 l 131 822 l 131 886 l 181 886 l 181 971 l 268 971 l 268 886 l 324 886 l 324 822 l 268 822 l 268 0 m 142 618 q 118 604 128 618 q 108 561 108 590 l 108 126 q 117 83 108 96 q 140 69 126 69 l 143 69 q 167 83 157 69 q 181 122 178 96 l 181 564 q 167 603 178 589 q 144 618 157 618 l 142 618 z "},"Ã":{"ha":310,"x_min":4,"x_max":307,"o":"m 217 0 l 307 0 l 213 971 l 93 971 l 4 0 l 85 0 l 108 263 l 193 263 l 217 0 m 149 710 l 153 710 l 186 333 l 114 333 l 149 710 m 39 1081 q 68 1117 51 1106 q 101 1128 85 1128 q 147 1114 125 1128 q 193 1100 169 1100 q 229 1119 210 1100 l 271 1092 q 240 1056 256 1065 q 206 1047 224 1047 q 159 1060 181 1047 q 118 1074 138 1074 q 98 1069 107 1074 q 78 1054 89 1065 l 39 1081 z "},"Â":{"ha":310,"x_min":4,"x_max":307,"o":"m 193 263 l 108 263 l 85 0 l 4 0 l 93 971 l 213 971 l 307 0 l 217 0 l 193 263 m 197 1144 l 278 1025 l 194 1025 l 154 1100 l 114 1025 l 32 1025 l 113 1144 l 197 1144 m 114 333 l 186 333 l 153 710 l 149 710 l 114 333 z "},"Á":{"ha":310,"x_min":4,"x_max":307,"o":"m 193 263 l 108 263 l 85 0 l 4 0 l 93 971 l 213 971 l 307 0 l 217 0 l 193 263 m 114 333 l 186 333 l 153 710 l 149 710 l 114 333 m 124 1025 l 179 1144 l 263 1144 l 182 1025 l 124 1025 z "},"À":{"ha":310,"x_min":4,"x_max":307,"o":"m 217 0 l 307 0 l 213 971 l 93 971 l 4 0 l 85 0 l 108 263 l 193 263 l 217 0 m 149 710 l 153 710 l 186 333 l 114 333 l 149 710 m 126 1025 l 46 1144 l 129 1144 l 185 1025 l 126 1025 z "},"Ä":{"ha":310,"x_min":4,"x_max":307,"o":"m 217 0 l 307 0 l 213 971 l 93 971 l 4 0 l 85 0 l 108 263 l 193 263 l 217 0 m 149 710 l 153 710 l 186 333 l 114 333 l 149 710 m 131 1040 l 68 1040 l 68 1135 l 131 1135 l 131 1040 m 239 1040 l 178 1040 l 178 1135 l 239 1135 l 239 1040 z "},"Å":{"ha":310,"x_min":4,"x_max":307,"o":"m 217 0 l 307 0 l 213 971 l 93 971 l 4 0 l 85 0 l 108 263 l 193 263 l 217 0 m 154 1013 q 95 1038 122 1013 q 68 1097 68 1064 q 94 1160 68 1133 q 153 1188 119 1188 q 215 1161 189 1188 q 242 1097 242 1135 q 217 1039 242 1065 q 154 1013 192 1013 m 149 710 l 153 710 l 186 333 l 114 333 l 149 710 m 154 1138 q 127 1126 139 1138 q 115 1099 115 1114 q 127 1072 115 1083 q 154 1061 139 1061 q 181 1072 169 1061 q 193 1099 193 1083 q 181 1126 193 1114 q 154 1138 169 1138 z "},"Ç":{"ha":317,"x_min":22,"x_max":294,"o":"m 74 -140 l 83 -99 q 114 -111 96 -107 q 147 -113 132 -115 q 173 -103 163 -111 q 182 -79 183 -94 q 162 -58 181 -62 q 128 -64 143 -53 l 108 -56 l 133 -8 l 138 -8 q 94 1 115 -7 q 58 26 74 10 q 32 68 42 43 q 22 128 22 93 l 22 843 q 33 905 22 879 q 62 947 44 931 q 101 972 79 964 q 147 979 124 979 l 169 979 q 215 972 192 979 q 255 947 238 964 q 283 905 272 931 q 294 843 294 879 l 294 579 l 200 579 l 200 831 q 189 884 200 868 q 163 900 178 900 l 154 900 q 128 885 139 900 q 117 829 117 869 l 117 142 q 128 87 117 103 q 154 71 139 71 l 163 71 q 189 87 178 71 q 200 142 200 103 l 200 393 l 294 393 l 294 128 q 285 68 294 93 q 258 26 275 43 q 221 1 242 10 q 178 -8 200 -7 l 185 -8 l 174 -37 q 222 -38 199 -26 q 246 -78 246 -50 q 224 -133 246 -114 q 174 -158 203 -151 q 117 -158 146 -164 q 74 -140 89 -153 z "},"Ê":{"ha":263,"x_min":15,"x_max":261,"o":"m 119 892 l 119 521 l 215 521 l 215 450 l 119 450 l 119 79 l 250 79 l 250 0 l 25 0 l 25 971 l 243 971 l 243 892 l 119 892 m 181 1144 l 261 1025 l 178 1025 l 138 1100 l 97 1025 l 15 1025 l 96 1144 l 181 1144 z "},"É":{"ha":263,"x_min":25,"x_max":250,"o":"m 119 892 l 119 521 l 215 521 l 215 450 l 119 450 l 119 79 l 250 79 l 250 0 l 25 0 l 25 971 l 243 971 l 243 892 l 119 892 m 107 1025 l 163 1144 l 246 1144 l 165 1025 l 107 1025 z "},"È":{"ha":263,"x_min":25,"x_max":250,"o":"m 243 892 l 243 971 l 25 971 l 25 0 l 250 0 l 250 79 l 119 79 l 119 450 l 215 450 l 215 521 l 119 521 l 119 892 l 243 892 m 110 1025 l 29 1144 l 113 1144 l 168 1025 l 110 1025 z "},"Ë":{"ha":263,"x_min":25,"x_max":250,"o":"m 243 892 l 243 971 l 25 971 l 25 0 l 250 0 l 250 79 l 119 79 l 119 450 l 215 450 l 215 521 l 119 521 l 119 892 l 243 892 m 114 1040 l 51 1040 l 51 1135 l 114 1135 l 114 1040 m 222 1040 l 161 1040 l 161 1135 l 222 1135 l 222 1040 z "},"Î":{"ha":144,"x_min":-50,"x_max":196,"o":"m 119 971 l 119 0 l 25 0 l 25 971 l 119 971 m 115 1151 l 196 1032 l 113 1032 l 72 1107 l 32 1032 l -50 1032 l 31 1151 l 115 1151 z "},"Í":{"ha":144,"x_min":25,"x_max":181,"o":"m 119 971 l 119 0 l 25 0 l 25 971 l 119 971 m 42 1032 l 97 1151 l 181 1151 l 100 1032 l 42 1032 z "},"Ì":{"ha":144,"x_min":-36,"x_max":119,"o":"m 25 971 l 25 0 l 119 0 l 119 971 l 25 971 m 44 1032 l -36 1151 l 47 1151 l 103 1032 l 44 1032 z "},"Ï":{"ha":144,"x_min":-14,"x_max":157,"o":"m 25 971 l 25 0 l 119 0 l 119 971 l 25 971 m 49 1047 l -14 1047 l -14 1142 l 49 1142 l 49 1047 m 157 1047 l 96 1047 l 96 1142 l 157 1142 l 157 1047 z "},"Ñ":{"ha":354,"x_min":21,"x_max":333,"o":"m 228 0 l 101 682 l 100 682 l 100 0 l 21 0 l 21 971 l 128 971 l 247 299 l 247 971 l 333 971 l 333 0 l 228 0 m 63 1081 q 92 1117 75 1106 q 125 1128 108 1128 q 171 1114 149 1128 q 217 1100 193 1100 q 253 1119 233 1100 l 294 1092 q 263 1056 279 1065 q 229 1047 247 1047 q 183 1060 204 1047 q 142 1074 161 1074 q 122 1069 131 1074 q 101 1054 113 1065 l 63 1081 z "},"Õ":{"ha":317,"x_min":22,"x_max":294,"o":"m 147 -8 q 101 -1 124 -8 q 62 24 79 7 q 33 66 44 40 q 22 128 22 92 l 22 843 q 33 905 22 879 q 62 947 44 931 q 101 972 79 964 q 147 979 124 979 l 169 979 q 215 972 192 979 q 255 947 238 964 q 283 905 272 931 q 294 843 294 879 l 294 128 q 283 66 294 92 q 255 24 272 40 q 215 -1 238 7 q 169 -8 192 -8 l 147 -8 m 154 900 q 128 883 139 900 q 117 829 117 867 l 117 142 q 128 87 117 103 q 154 71 139 71 l 163 71 q 189 87 178 71 q 200 142 200 103 l 200 829 q 189 883 200 867 q 163 900 178 900 l 154 900 m 43 1081 q 107 1128 68 1128 q 152 1114 131 1128 q 197 1100 174 1100 q 233 1119 215 1100 l 276 1092 q 244 1056 261 1065 q 210 1047 228 1047 q 164 1060 185 1047 q 124 1074 143 1074 q 103 1069 113 1074 q 82 1054 93 1065 l 43 1081 z "},"Ô":{"ha":317,"x_min":22,"x_max":294,"o":"m 147 -8 q 101 -1 124 -8 q 62 24 79 7 q 33 66 44 40 q 22 128 22 92 l 22 843 q 33 905 22 879 q 62 947 44 931 q 101 972 79 964 q 147 979 124 979 l 169 979 q 215 972 192 979 q 255 947 238 964 q 283 905 272 931 q 294 843 294 879 l 294 128 q 283 66 294 92 q 255 24 272 40 q 215 -1 238 7 q 169 -8 192 -8 l 147 -8 m 154 900 q 128 883 139 900 q 117 829 117 867 l 117 142 q 128 87 117 103 q 154 71 139 71 l 163 71 q 189 87 178 71 q 200 142 200 103 l 200 829 q 189 883 200 867 q 163 900 178 900 l 154 900 m 201 1144 l 282 1025 l 200 1025 l 158 1101 l 118 1025 l 36 1025 l 117 1144 l 201 1144 z "},"Ó":{"ha":317,"x_min":22,"x_max":294,"o":"m 147 -8 q 101 -1 124 -8 q 62 24 79 7 q 33 66 44 40 q 22 128 22 92 l 22 843 q 33 905 22 879 q 62 947 44 931 q 101 972 79 964 q 147 979 124 979 l 169 979 q 215 972 192 979 q 255 947 238 964 q 283 905 272 931 q 294 843 294 879 l 294 128 q 283 66 294 92 q 255 24 272 40 q 215 -1 238 7 q 169 -8 192 -8 l 147 -8 m 154 900 q 128 883 139 900 q 117 829 117 867 l 117 142 q 128 87 117 103 q 154 71 139 71 l 163 71 q 189 87 178 71 q 200 142 200 103 l 200 829 q 189 883 200 867 q 163 900 178 900 l 154 900 m 128 1025 l 183 1144 l 267 1144 l 186 1025 l 128 1025 z "},"Ò":{"ha":317,"x_min":22,"x_max":294,"o":"m 147 -8 q 101 -1 124 -8 q 62 24 79 7 q 33 66 44 40 q 22 128 22 92 l 22 843 q 33 905 22 879 q 62 947 44 931 q 101 972 79 964 q 147 979 124 979 l 169 979 q 215 972 192 979 q 255 947 238 964 q 283 905 272 931 q 294 843 294 879 l 294 128 q 283 66 294 92 q 255 24 272 40 q 215 -1 238 7 q 169 -8 192 -8 l 147 -8 m 154 900 q 128 883 139 900 q 117 829 117 867 l 117 142 q 128 87 117 103 q 154 71 139 71 l 163 71 q 189 87 178 71 q 200 142 200 103 l 200 829 q 189 883 200 867 q 163 900 178 900 l 154 900 m 131 1025 l 50 1144 l 133 1144 l 189 1025 l 131 1025 z "},"Ö":{"ha":317,"x_min":22,"x_max":294,"o":"m 147 -8 q 101 -1 124 -8 q 62 24 79 7 q 33 66 44 40 q 22 128 22 92 l 22 843 q 33 905 22 879 q 62 947 44 931 q 101 972 79 964 q 147 979 124 979 l 169 979 q 215 972 192 979 q 255 947 238 964 q 283 905 272 931 q 294 843 294 879 l 294 128 q 283 66 294 92 q 255 24 272 40 q 215 -1 238 7 q 169 -8 192 -8 l 147 -8 m 154 900 q 128 883 139 900 q 117 829 117 867 l 117 142 q 128 87 117 103 q 154 71 139 71 l 163 71 q 189 87 178 71 q 200 142 200 103 l 200 829 q 189 883 200 867 q 163 900 178 900 l 154 900 m 135 1040 l 74 1040 l 74 1135 l 135 1135 l 135 1040 m 244 1040 l 182 1040 l 182 1135 l 244 1135 l 244 1040 z "},"Û":{"ha":319,"x_min":25,"x_max":297,"o":"m 150 -8 q 104 -1 126 -8 q 65 24 82 7 q 36 66 47 40 q 25 128 25 92 l 25 971 l 119 971 l 119 142 q 131 87 119 103 q 157 71 142 71 l 165 71 q 192 87 181 71 q 203 142 203 103 l 203 971 l 297 971 l 297 128 q 286 66 297 92 q 258 24 275 40 q 217 -1 240 7 q 172 -8 194 -8 l 150 -8 m 204 1144 l 285 1025 l 201 1025 l 161 1100 l 121 1025 l 38 1025 l 118 1144 l 204 1144 z "},"Ú":{"ha":319,"x_min":25,"x_max":297,"o":"m 150 -8 q 104 -1 126 -8 q 65 24 82 7 q 36 66 47 40 q 25 128 25 92 l 25 971 l 119 971 l 119 142 q 131 87 119 103 q 157 71 142 71 l 165 71 q 192 87 181 71 q 203 142 203 103 l 203 971 l 297 971 l 297 128 q 286 66 297 92 q 258 24 275 40 q 217 -1 240 7 q 172 -8 194 -8 l 150 -8 m 131 1025 l 186 1144 l 269 1144 l 189 1025 l 131 1025 z "},"Ù":{"ha":319,"x_min":25,"x_max":297,"o":"m 150 -8 q 104 -1 126 -8 q 65 24 82 7 q 36 66 47 40 q 25 128 25 92 l 25 971 l 119 971 l 119 142 q 131 87 119 103 q 157 71 142 71 l 165 71 q 192 87 181 71 q 203 142 203 103 l 203 971 l 297 971 l 297 128 q 286 66 297 92 q 258 24 275 40 q 217 -1 240 7 q 172 -8 194 -8 l 150 -8 m 133 1025 l 53 1144 l 135 1144 l 190 1025 l 133 1025 z "},"Ü":{"ha":319,"x_min":25,"x_max":297,"o":"m 150 -8 q 104 -1 126 -8 q 65 24 82 7 q 36 66 47 40 q 25 128 25 92 l 25 971 l 119 971 l 119 142 q 131 87 119 103 q 157 71 142 71 l 165 71 q 192 87 181 71 q 203 142 203 103 l 203 971 l 297 971 l 297 128 q 286 66 297 92 q 258 24 275 40 q 217 -1 240 7 q 172 -8 194 -8 l 150 -8 m 138 1040 l 75 1040 l 75 1135 l 138 1135 l 138 1040 m 246 1040 l 183 1040 l 183 1135 l 246 1135 l 246 1040 z "},"Ý":{"ha":311,"x_min":4,"x_max":307,"o":"m 203 364 l 203 0 l 108 0 l 108 364 l 4 971 l 97 971 l 154 578 l 157 578 l 214 971 l 307 971 l 203 364 m 125 1025 l 181 1144 l 264 1144 l 183 1025 l 125 1025 z "},"ã":{"ha":286,"x_min":21,"x_max":268,"o":"m 100 -4 q 36 30 51 -4 q 21 124 21 64 l 21 257 q 40 351 21 317 q 106 385 58 385 l 110 385 q 144 376 126 385 q 181 356 163 368 l 181 561 q 171 604 181 590 q 147 618 161 618 l 140 618 q 117 604 126 618 q 108 561 108 590 l 108 404 l 21 404 l 21 564 q 53 658 21 625 q 133 692 86 692 l 156 692 q 236 658 204 692 q 268 563 268 625 l 268 0 l 181 0 l 181 26 q 142 4 161 13 q 104 -4 122 -4 l 100 -4 m 140 319 q 117 306 126 319 q 108 263 108 292 l 108 118 q 117 74 108 88 q 140 61 126 61 l 143 61 q 167 72 157 61 q 181 110 178 83 l 181 290 q 168 313 178 306 q 150 319 158 319 l 140 319 m 31 799 q 60 835 43 824 q 93 846 76 846 q 138 832 117 846 q 183 818 160 818 q 219 838 201 818 l 263 810 q 231 775 247 785 q 196 765 214 765 q 150 778 171 765 q 110 792 129 792 q 89 788 99 792 q 68 772 79 783 l 31 799 z "},"â":{"ha":286,"x_min":21,"x_max":269,"o":"m 100 -4 q 36 30 51 -4 q 21 124 21 64 l 21 257 q 40 351 21 317 q 106 385 58 385 l 110 385 q 144 376 126 385 q 181 356 163 368 l 181 561 q 171 604 181 590 q 147 618 161 618 l 140 618 q 117 604 126 618 q 108 561 108 590 l 108 404 l 21 404 l 21 564 q 53 658 21 625 q 133 692 86 692 l 156 692 q 236 658 204 692 q 268 563 268 625 l 268 0 l 181 0 l 181 26 q 142 4 161 13 q 104 -4 122 -4 l 100 -4 m 140 319 q 117 306 126 319 q 108 263 108 292 l 108 118 q 117 74 108 88 q 140 61 126 61 l 143 61 q 169 74 158 61 q 181 118 181 88 l 181 290 q 168 313 178 306 q 150 319 158 319 l 140 319 m 189 863 l 269 743 l 186 743 l 146 818 l 106 743 l 22 743 l 103 863 l 189 863 z "},"á":{"ha":286,"x_min":21,"x_max":268,"o":"m 100 -4 q 36 30 51 -4 q 21 124 21 64 l 21 257 q 40 351 21 317 q 106 385 58 385 l 110 385 q 144 376 126 385 q 181 356 163 368 l 181 561 q 171 604 181 590 q 147 618 161 618 l 140 618 q 117 604 126 618 q 108 561 108 590 l 108 404 l 21 404 l 21 564 q 53 658 21 625 q 133 692 86 692 l 156 692 q 236 658 204 692 q 268 563 268 625 l 268 0 l 181 0 l 181 26 q 142 4 161 13 q 104 -4 122 -4 l 100 -4 m 140 319 q 117 306 126 319 q 108 263 108 292 l 108 118 q 117 74 108 88 q 140 61 126 61 l 143 61 q 169 74 158 61 q 181 118 181 88 l 181 290 q 168 313 178 306 q 150 319 158 319 l 140 319 m 115 743 l 171 863 l 253 863 l 172 743 l 115 743 z "},"à":{"ha":286,"x_min":21,"x_max":268,"o":"m 100 -4 q 36 30 51 -4 q 21 124 21 64 l 21 257 q 40 351 21 317 q 106 385 58 385 l 110 385 q 144 376 126 385 q 181 356 163 368 l 181 561 q 171 604 181 590 q 147 618 161 618 l 140 618 q 117 604 126 618 q 108 561 108 590 l 108 404 l 21 404 l 21 564 q 53 658 21 625 q 133 692 86 692 l 156 692 q 236 658 204 692 q 268 563 268 625 l 268 0 l 181 0 l 181 26 q 142 4 161 13 q 104 -4 122 -4 l 100 -4 m 140 319 q 117 306 126 319 q 108 263 108 292 l 108 118 q 117 74 108 88 q 140 61 126 61 l 143 61 q 169 74 158 61 q 181 118 181 88 l 181 290 q 168 313 178 306 q 150 319 158 319 l 140 319 m 118 743 l 38 863 l 119 863 l 175 743 l 118 743 z "},"ä":{"ha":286,"x_min":21,"x_max":268,"o":"m 100 -4 q 36 30 51 -4 q 21 124 21 64 l 21 257 q 40 351 21 317 q 106 385 58 385 l 110 385 q 144 376 126 385 q 181 356 163 368 l 181 561 q 171 604 181 590 q 147 618 161 618 l 140 618 q 117 604 126 618 q 108 561 108 590 l 108 404 l 21 404 l 21 564 q 53 658 21 625 q 133 692 86 692 l 156 692 q 236 658 204 692 q 268 563 268 625 l 268 0 l 181 0 l 181 26 q 142 4 161 13 q 104 -4 122 -4 l 100 -4 m 140 319 q 117 306 126 319 q 108 263 108 292 l 108 118 q 117 74 108 88 q 140 61 126 61 l 143 61 q 169 74 158 61 q 181 118 181 88 l 181 290 q 168 313 178 306 q 150 319 158 319 l 140 319 m 122 758 l 60 758 l 60 853 l 122 853 l 122 758 m 231 758 l 168 758 l 168 853 l 231 853 l 231 758 z "},"å":{"ha":286,"x_min":21,"x_max":268,"o":"m 100 -4 q 36 30 51 -4 q 21 124 21 64 l 21 257 q 40 351 21 317 q 106 385 58 385 l 110 385 q 144 376 126 385 q 181 356 163 368 l 181 561 q 171 604 181 590 q 147 618 161 618 l 140 618 q 117 604 126 618 q 108 561 108 590 l 108 404 l 21 404 l 21 564 q 53 658 21 625 q 133 692 86 692 l 156 692 q 236 658 204 692 q 268 563 268 625 l 268 0 l 181 0 l 181 26 q 142 4 161 13 q 104 -4 122 -4 l 100 -4 m 144 732 q 86 757 113 732 q 60 817 60 782 q 85 879 60 853 q 144 906 110 906 q 207 879 181 906 q 233 817 233 853 q 208 758 233 783 q 144 732 182 732 m 140 319 q 117 306 126 319 q 108 263 108 292 l 108 118 q 117 74 108 88 q 140 61 126 61 l 143 61 q 169 74 158 61 q 181 118 181 88 l 181 290 q 168 313 178 306 q 150 319 158 319 l 140 319 m 144 856 q 119 844 131 856 q 107 817 107 832 q 119 791 107 803 q 144 779 131 779 q 172 791 160 779 q 185 817 185 803 q 172 844 185 832 q 144 856 160 856 z "},"ç":{"ha":286,"x_min":21,"x_max":268,"o":"m 58 -136 l 68 -94 q 99 -107 81 -103 q 132 -109 117 -111 q 158 -99 147 -107 q 167 -75 168 -90 q 146 -53 164 -58 q 113 -60 128 -49 l 93 -51 l 117 -3 q 49 35 76 1 q 21 125 21 68 l 21 563 q 53 658 21 625 q 133 692 85 692 l 156 692 q 235 658 203 692 q 268 564 268 625 l 268 404 l 181 404 l 181 561 q 172 604 181 590 q 149 618 163 618 l 142 618 q 118 604 128 618 q 108 561 108 590 l 108 126 q 118 83 108 96 q 139 69 128 69 l 149 69 q 172 83 163 69 q 181 126 181 96 l 181 286 l 268 286 l 268 125 q 240 34 268 67 q 169 -3 211 1 l 158 -33 q 207 -34 183 -22 q 231 -74 231 -46 q 209 -128 231 -110 q 159 -153 188 -147 q 102 -154 131 -160 q 58 -136 74 -149 z "},"ê":{"ha":286,"x_min":21,"x_max":268,"o":"m 139 69 l 149 69 q 172 83 163 69 q 181 126 181 96 l 181 286 l 268 286 l 268 125 q 235 29 268 63 q 156 -4 203 -4 l 131 -4 q 53 30 86 -4 q 21 125 21 64 l 21 563 q 53 658 21 625 q 133 692 85 692 l 156 692 q 235 658 203 692 q 268 564 268 625 l 268 324 l 108 324 l 108 126 q 118 83 108 96 q 139 69 128 69 m 186 863 l 267 743 l 185 743 l 144 818 l 104 743 l 21 743 l 101 863 l 186 863 m 181 385 l 181 561 q 172 604 181 590 q 149 618 163 618 l 142 618 q 118 604 128 618 q 108 561 108 590 l 108 385 l 181 385 z "},"é":{"ha":286,"x_min":21,"x_max":268,"o":"m 139 69 l 149 69 q 172 83 163 69 q 181 126 181 96 l 181 286 l 268 286 l 268 125 q 235 29 268 63 q 156 -4 203 -4 l 131 -4 q 53 30 86 -4 q 21 125 21 64 l 21 563 q 53 658 21 625 q 133 692 85 692 l 156 692 q 235 658 203 692 q 268 564 268 625 l 268 324 l 108 324 l 108 126 q 118 83 108 96 q 139 69 128 69 m 181 385 l 181 561 q 172 604 181 590 q 149 618 163 618 l 142 618 q 118 604 128 618 q 108 561 108 590 l 108 385 l 181 385 m 114 743 l 169 863 l 251 863 l 171 743 l 114 743 z "},"è":{"ha":286,"x_min":21,"x_max":268,"o":"m 139 69 l 149 69 q 172 83 163 69 q 181 126 181 96 l 181 286 l 268 286 l 268 125 q 235 29 268 63 q 156 -4 203 -4 l 131 -4 q 53 30 86 -4 q 21 125 21 64 l 21 563 q 53 658 21 625 q 133 692 85 692 l 156 692 q 235 658 203 692 q 268 564 268 625 l 268 324 l 108 324 l 108 126 q 118 83 108 96 q 139 69 128 69 m 181 385 l 181 561 q 172 604 181 590 q 149 618 163 618 l 142 618 q 118 604 128 618 q 108 561 108 590 l 108 385 l 181 385 m 115 743 l 35 863 l 118 863 l 174 743 l 115 743 z "},"ë":{"ha":286,"x_min":21,"x_max":268,"o":"m 139 69 l 149 69 q 172 83 163 69 q 181 126 181 96 l 181 286 l 268 286 l 268 125 q 235 29 268 63 q 156 -4 203 -4 l 131 -4 q 53 30 86 -4 q 21 125 21 64 l 21 563 q 53 658 21 625 q 133 692 85 692 l 156 692 q 235 658 203 692 q 268 564 268 625 l 268 324 l 108 324 l 108 126 q 118 83 108 96 q 139 69 128 69 m 181 385 l 181 561 q 172 604 181 590 q 149 618 163 618 l 142 618 q 118 604 128 618 q 108 561 108 590 l 108 385 l 181 385 m 121 758 l 58 758 l 58 853 l 121 853 l 121 758 m 229 758 l 167 758 l 167 853 l 229 853 l 229 758 z "},"ñ":{"ha":290,"x_min":22,"x_max":303,"o":"m 151 618 q 174 605 165 618 q 183 561 183 592 l 183 0 l 271 0 l 271 564 q 253 658 271 624 q 186 692 235 692 l 183 692 q 145 681 164 692 q 110 651 126 669 l 110 688 l 22 688 l 22 0 l 110 0 l 110 563 q 124 603 113 588 q 149 618 136 618 l 151 618 m 69 799 q 133 846 94 846 q 178 832 157 846 q 224 818 200 818 q 260 838 242 818 l 303 810 q 271 775 288 785 q 236 765 254 765 q 190 778 211 765 q 150 792 169 792 q 129 788 139 792 q 108 772 119 783 l 69 799 z "},"õ":{"ha":286,"x_min":21,"x_max":268,"o":"m 133 -4 q 53 30 85 -4 q 21 124 21 64 l 21 564 q 53 658 22 624 q 133 692 85 692 l 156 692 q 235 658 203 692 q 268 564 268 624 l 268 124 q 235 30 268 64 q 156 -4 203 -4 l 133 -4 m 142 618 q 118 604 128 618 q 108 561 108 590 l 108 126 q 118 83 108 96 q 142 69 128 69 l 149 69 q 172 83 163 69 q 181 126 181 96 l 181 561 q 172 604 181 590 q 149 618 163 618 l 142 618 m 29 799 q 93 846 54 846 q 138 832 117 846 q 183 818 160 818 q 219 838 201 818 l 263 810 q 231 775 247 785 q 196 765 214 765 q 150 778 171 765 q 110 792 129 792 q 89 788 99 792 q 68 772 79 783 l 29 799 z "},"ô":{"ha":286,"x_min":21,"x_max":268,"o":"m 133 -4 q 53 30 85 -4 q 21 124 21 64 l 21 564 q 53 658 22 624 q 133 692 85 692 l 156 692 q 235 658 203 692 q 268 564 268 624 l 268 124 q 235 30 268 64 q 156 -4 203 -4 l 133 -4 m 142 618 q 118 604 128 618 q 108 561 108 590 l 108 126 q 118 83 108 96 q 142 69 128 69 l 149 69 q 172 83 163 69 q 181 126 181 96 l 181 561 q 172 604 181 590 q 149 618 163 618 l 142 618 m 188 863 l 268 743 l 186 743 l 144 819 l 104 743 l 22 743 l 103 863 l 188 863 z "},"ó":{"ha":286,"x_min":21,"x_max":268,"o":"m 133 -4 q 53 30 85 -4 q 21 124 21 64 l 21 564 q 53 658 22 624 q 133 692 85 692 l 156 692 q 235 658 203 692 q 268 564 268 624 l 268 124 q 235 30 268 64 q 156 -4 203 -4 l 133 -4 m 142 618 q 118 604 128 618 q 108 561 108 590 l 108 126 q 118 83 108 96 q 142 69 128 69 l 149 69 q 172 83 163 69 q 181 126 181 96 l 181 561 q 172 604 181 590 q 149 618 163 618 l 142 618 m 114 743 l 169 863 l 253 863 l 172 743 l 114 743 z "},"ò":{"ha":286,"x_min":21,"x_max":268,"o":"m 133 -4 q 53 30 85 -4 q 21 124 21 64 l 21 564 q 53 658 22 624 q 133 692 85 692 l 156 692 q 235 658 203 692 q 268 564 268 624 l 268 124 q 235 30 268 64 q 156 -4 203 -4 l 133 -4 m 142 618 q 118 604 128 618 q 108 561 108 590 l 108 126 q 118 83 108 96 q 142 69 128 69 l 149 69 q 172 83 163 69 q 181 126 181 96 l 181 561 q 172 604 181 590 q 149 618 163 618 l 142 618 m 117 743 l 36 863 l 119 863 l 175 743 l 117 743 z "},"ö":{"ha":286,"x_min":21,"x_max":268,"o":"m 133 -4 q 53 30 85 -4 q 21 124 21 64 l 21 564 q 53 658 22 624 q 133 692 85 692 l 156 692 q 235 658 203 692 q 268 564 268 624 l 268 124 q 235 30 268 64 q 156 -4 203 -4 l 133 -4 m 142 618 q 118 604 128 618 q 108 561 108 590 l 108 126 q 118 83 108 96 q 142 69 128 69 l 149 69 q 172 83 163 69 q 181 126 181 96 l 181 561 q 172 604 181 590 q 149 618 163 618 l 142 618 m 121 760 l 60 760 l 60 854 l 121 854 l 121 760 m 231 760 l 168 760 l 168 854 l 231 854 l 231 760 z "},"û":{"ha":289,"x_min":19,"x_max":268,"o":"m 142 69 q 169 87 157 69 q 181 133 181 104 l 181 688 l 268 688 l 268 0 l 181 0 l 181 35 q 145 6 164 17 q 108 -4 126 -4 l 104 -4 q 38 30 56 -4 q 19 124 19 64 l 19 688 l 107 688 l 107 126 q 116 83 107 96 q 139 69 125 69 l 142 69 m 188 861 l 268 742 l 185 742 l 144 817 l 104 742 l 21 742 l 101 861 l 188 861 z "},"ú":{"ha":289,"x_min":19,"x_max":268,"o":"m 142 69 q 169 87 157 69 q 181 133 181 104 l 181 688 l 268 688 l 268 0 l 181 0 l 181 35 q 145 6 164 17 q 108 -4 126 -4 l 104 -4 q 38 30 56 -4 q 19 124 19 64 l 19 688 l 107 688 l 107 126 q 116 83 107 96 q 139 69 125 69 l 142 69 m 114 742 l 169 861 l 253 861 l 172 742 l 114 742 z "},"ù":{"ha":289,"x_min":19,"x_max":268,"o":"m 139 69 q 116 83 125 69 q 107 126 107 96 l 107 688 l 19 688 l 19 124 q 38 30 19 64 q 104 -4 56 -4 l 108 -4 q 145 6 126 -4 q 181 35 164 17 l 181 0 l 268 0 l 268 688 l 181 688 l 181 133 q 169 87 181 104 q 142 69 157 69 l 139 69 m 117 742 l 36 861 l 118 861 l 174 742 l 117 742 z "},"ü":{"ha":289,"x_min":19,"x_max":268,"o":"m 139 69 q 116 83 125 69 q 107 126 107 96 l 107 688 l 19 688 l 19 124 q 38 30 19 64 q 104 -4 56 -4 l 108 -4 q 145 6 126 -4 q 181 35 164 17 l 181 0 l 268 0 l 268 688 l 181 688 l 181 133 q 169 87 181 104 q 142 69 157 69 l 139 69 m 229 757 l 167 757 l 167 851 l 229 851 l 229 757 m 121 757 l 58 757 l 58 851 l 121 851 l 121 757 z "},"î":{"ha":133,"x_min":-54,"x_max":193,"o":"m 113 688 l 113 0 l 25 0 l 25 688 l 113 688 m 113 861 l 193 742 l 110 742 l 69 817 l 29 742 l -54 742 l 26 861 l 113 861 z "},"ì":{"ha":133,"x_min":-39,"x_max":113,"o":"m 25 688 l 25 0 l 113 0 l 113 688 l 25 688 m 42 742 l -39 861 l 43 861 l 99 742 l 42 742 z "},"ï":{"ha":133,"x_min":-17,"x_max":154,"o":"m 25 688 l 25 0 l 113 0 l 113 688 l 25 688 m 46 757 l -17 757 l -17 851 l 46 851 l 46 757 m 154 757 l 92 757 l 92 851 l 154 851 l 154 757 z "},"ý":{"ha":260,"x_min":3,"x_max":257,"o":"m 186 688 l 257 688 l 164 -229 l 78 -229 l 104 0 l 3 688 l 82 688 l 133 243 l 138 243 l 186 688 m 101 743 l 157 863 l 239 863 l 158 743 l 101 743 z "},"ÿ":{"ha":260,"x_min":3,"x_max":257,"o":"m 138 243 l 133 243 l 82 688 l 3 688 l 104 0 l 78 -229 l 164 -229 l 257 688 l 186 688 l 138 243 m 107 761 l 44 761 l 44 856 l 107 856 l 107 761 m 215 761 l 153 761 l 153 856 l 215 856 l 215 761 z "},"Ă":{"ha":310,"x_min":4,"x_max":307,"o":"m 217 0 l 307 0 l 213 971 l 93 971 l 4 0 l 85 0 l 108 263 l 193 263 l 217 0 m 149 710 l 153 710 l 186 333 l 114 333 l 149 710 m 117 1133 q 128 1106 117 1118 q 154 1094 139 1094 q 182 1106 169 1094 q 194 1133 194 1118 l 250 1133 q 222 1069 250 1097 q 154 1040 194 1040 q 90 1068 118 1040 q 63 1133 63 1096 l 117 1133 z "},"Ā":{"ha":310,"x_min":4,"x_max":307,"o":"m 193 263 l 108 263 l 85 0 l 4 0 l 93 971 l 213 971 l 307 0 l 217 0 l 193 263 m 114 333 l 186 333 l 153 710 l 149 710 l 114 333 m 246 1054 l 61 1054 l 61 1119 l 246 1119 l 246 1054 z "},"Ą":{"ha":310,"x_min":4,"x_max":335,"o":"m 335 -90 q 299 -126 322 -115 q 253 -133 276 -136 q 213 -115 231 -131 q 196 -71 196 -99 q 233 0 196 -31 l 217 0 l 193 263 l 108 263 l 85 0 l 4 0 l 93 971 l 213 971 l 307 0 l 303 0 q 263 -26 278 -7 q 247 -60 247 -44 q 269 -87 249 -85 q 303 -69 289 -90 l 335 -90 m 114 333 l 186 333 l 153 710 l 149 710 l 114 333 z "},"ă":{"ha":286,"x_min":21,"x_max":268,"o":"m 100 -4 q 36 30 51 -4 q 21 124 21 64 l 21 257 q 40 351 21 317 q 106 385 58 385 l 110 385 q 144 376 126 385 q 181 356 163 368 l 181 561 q 171 604 181 590 q 147 618 161 618 l 140 618 q 117 604 126 618 q 108 561 108 590 l 108 404 l 21 404 l 21 564 q 53 658 21 625 q 133 692 86 692 l 156 692 q 236 658 204 692 q 268 563 268 625 l 268 0 l 181 0 l 181 26 q 142 4 161 13 q 104 -4 122 -4 l 100 -4 m 140 319 q 117 306 126 319 q 108 263 108 292 l 108 118 q 117 74 108 88 q 140 61 126 61 l 143 61 q 167 72 157 61 q 181 110 178 83 l 181 288 q 170 313 181 306 q 150 319 160 319 l 140 319 m 108 851 q 119 824 108 836 q 146 813 131 813 q 173 824 161 813 q 185 851 185 836 l 240 851 q 213 787 240 815 q 144 758 185 758 q 81 786 108 758 q 54 851 54 814 l 108 851 z "},"ā":{"ha":286,"x_min":21,"x_max":268,"o":"m 100 -4 q 36 30 51 -4 q 21 124 21 64 l 21 257 q 40 351 21 317 q 106 385 58 385 l 110 385 q 144 376 126 385 q 181 356 163 368 l 181 561 q 171 604 181 590 q 147 618 161 618 l 140 618 q 117 604 126 618 q 108 561 108 590 l 108 404 l 21 404 l 21 564 q 53 658 21 625 q 133 692 86 692 l 156 692 q 236 658 204 692 q 268 563 268 625 l 268 0 l 181 0 l 181 26 q 142 4 161 13 q 104 -4 122 -4 l 100 -4 m 140 319 q 117 306 126 319 q 108 263 108 292 l 108 118 q 117 74 108 88 q 140 61 126 61 l 143 61 q 169 74 158 61 q 181 118 181 88 l 181 288 q 170 313 181 306 q 150 319 160 319 l 140 319 m 236 774 l 53 774 l 53 838 l 236 838 l 236 774 z "},"ą":{"ha":286,"x_min":21,"x_max":300,"o":"m 100 -4 q 36 30 51 -4 q 21 124 21 64 l 21 257 q 40 351 21 317 q 106 385 58 385 l 110 385 q 144 376 126 385 q 181 356 163 368 l 181 561 q 171 604 181 590 q 147 618 161 618 l 140 618 q 117 604 126 618 q 108 561 108 590 l 108 404 l 21 404 l 21 564 q 53 658 21 625 q 133 692 86 692 l 156 692 q 236 658 204 692 q 268 563 268 625 l 268 0 l 181 0 l 181 26 q 142 4 161 13 q 104 -4 122 -4 l 100 -4 m 140 319 q 117 306 126 319 q 108 263 108 292 l 108 118 q 117 74 108 88 q 140 61 126 61 l 143 61 q 169 74 158 61 q 181 118 181 88 l 181 288 q 170 313 181 306 q 150 319 160 319 l 140 319 m 268 -69 q 233 -87 254 -90 q 213 -60 213 -85 q 227 -26 211 -44 q 267 0 243 -7 l 199 0 q 160 -71 160 -31 q 177 -115 160 -99 q 218 -133 194 -131 q 265 -126 242 -136 q 300 -90 288 -115 l 268 -69 z "},"Ĉ":{"ha":317,"x_min":22,"x_max":294,"o":"m 147 -8 q 101 -1 124 -8 q 62 24 79 7 q 33 66 44 40 q 22 128 22 92 l 22 843 q 33 905 22 879 q 62 947 44 931 q 101 972 79 964 q 147 979 124 979 l 169 979 q 215 972 192 979 q 255 947 238 964 q 283 905 272 931 q 294 843 294 879 l 294 579 l 200 579 l 200 831 q 189 884 200 868 q 163 900 178 900 l 154 900 q 128 885 139 900 q 117 829 117 869 l 117 142 q 128 87 117 103 q 154 71 139 71 l 163 71 q 189 87 178 71 q 200 142 200 103 l 200 393 l 294 393 l 294 128 q 283 66 294 92 q 255 24 272 40 q 215 -1 238 7 q 169 -8 192 -8 l 147 -8 m 201 1147 l 282 1028 l 200 1028 l 158 1104 l 118 1028 l 36 1028 l 117 1147 l 201 1147 z "},"Ć":{"ha":317,"x_min":22,"x_max":294,"o":"m 147 -8 q 101 -1 124 -8 q 62 24 79 7 q 33 66 44 40 q 22 128 22 92 l 22 843 q 33 905 22 879 q 62 947 44 931 q 101 972 79 964 q 147 979 124 979 l 169 979 q 215 972 192 979 q 255 947 238 964 q 283 905 272 931 q 294 843 294 879 l 294 579 l 200 579 l 200 831 q 189 884 200 868 q 163 900 178 900 l 154 900 q 128 885 139 900 q 117 829 117 869 l 117 142 q 128 87 117 103 q 154 71 139 71 l 163 71 q 189 87 178 71 q 200 142 200 103 l 200 393 l 294 393 l 294 128 q 283 66 294 92 q 255 24 272 40 q 215 -1 238 7 q 169 -8 192 -8 l 147 -8 m 128 1028 l 183 1147 l 267 1147 l 186 1028 l 128 1028 z "},"Č":{"ha":317,"x_min":22,"x_max":294,"o":"m 147 -8 q 101 -1 124 -8 q 62 24 79 7 q 33 66 44 40 q 22 128 22 92 l 22 843 q 33 905 22 879 q 62 947 44 931 q 101 972 79 964 q 147 979 124 979 l 169 979 q 215 972 192 979 q 255 947 238 964 q 283 905 272 931 q 294 843 294 879 l 294 579 l 200 579 l 200 831 q 189 884 200 868 q 163 900 178 900 l 154 900 q 128 885 139 900 q 117 829 117 869 l 117 142 q 128 87 117 103 q 154 71 139 71 l 163 71 q 189 87 178 71 q 200 142 200 103 l 200 393 l 294 393 l 294 128 q 283 66 294 92 q 255 24 272 40 q 215 -1 238 7 q 169 -8 192 -8 l 147 -8 m 115 1031 l 35 1150 l 117 1150 l 157 1074 l 199 1150 l 281 1150 l 200 1031 l 115 1031 z "},"Ċ":{"ha":317,"x_min":22,"x_max":294,"o":"m 147 -8 q 101 -1 124 -8 q 62 24 79 7 q 33 66 44 40 q 22 128 22 92 l 22 843 q 33 905 22 879 q 62 947 44 931 q 101 972 79 964 q 147 979 124 979 l 169 979 q 215 972 192 979 q 255 947 238 964 q 283 905 272 931 q 294 843 294 879 l 294 579 l 200 579 l 200 831 q 189 884 200 868 q 163 900 178 900 l 154 900 q 128 885 139 900 q 117 829 117 869 l 117 142 q 128 87 117 103 q 154 71 139 71 l 163 71 q 189 87 178 71 q 200 142 200 103 l 200 393 l 294 393 l 294 128 q 283 66 294 92 q 255 24 272 40 q 215 -1 238 7 q 169 -8 192 -8 l 147 -8 m 188 1044 l 125 1044 l 125 1139 l 188 1139 l 188 1044 z "},"ĉ":{"ha":286,"x_min":21,"x_max":268,"o":"m 181 404 l 181 561 q 172 604 181 590 q 149 618 163 618 l 142 618 q 118 604 128 618 q 108 561 108 590 l 108 126 q 118 83 108 96 q 139 69 128 69 l 149 69 q 172 83 163 69 q 181 126 181 96 l 181 286 l 268 286 l 268 125 q 235 29 268 63 q 156 -4 203 -4 l 131 -4 q 53 30 86 -4 q 21 125 21 64 l 21 563 q 53 658 21 625 q 133 692 85 692 l 156 692 q 235 658 203 692 q 268 564 268 625 l 268 404 l 181 404 m 188 863 l 268 743 l 185 743 l 144 818 l 104 743 l 21 743 l 101 863 l 188 863 z "},"ć":{"ha":286,"x_min":21,"x_max":268,"o":"m 181 404 l 181 561 q 172 604 181 590 q 149 618 163 618 l 142 618 q 118 604 128 618 q 108 561 108 590 l 108 126 q 118 83 108 96 q 139 69 128 69 l 149 69 q 172 83 163 69 q 181 126 181 96 l 181 286 l 268 286 l 268 125 q 235 29 268 63 q 156 -4 203 -4 l 131 -4 q 53 30 86 -4 q 21 125 21 64 l 21 563 q 53 658 21 625 q 133 692 85 692 l 156 692 q 235 658 203 692 q 268 564 268 625 l 268 404 l 181 404 m 114 743 l 169 863 l 253 863 l 172 743 l 114 743 z "},"č":{"ha":286,"x_min":19,"x_max":268,"o":"m 181 404 l 181 561 q 172 604 181 590 q 149 618 163 618 l 142 618 q 118 604 128 618 q 108 561 108 590 l 108 126 q 118 83 108 96 q 139 69 128 69 l 149 69 q 172 83 163 69 q 181 126 181 96 l 181 286 l 268 286 l 268 125 q 235 29 268 63 q 156 -4 203 -4 l 131 -4 q 53 30 86 -4 q 21 125 21 64 l 21 563 q 53 658 21 625 q 133 692 85 692 l 156 692 q 235 658 203 692 q 268 564 268 625 l 268 404 l 181 404 m 100 746 l 19 865 l 103 865 l 143 790 l 183 865 l 267 865 l 186 746 l 100 746 z "},"ċ":{"ha":286,"x_min":21,"x_max":268,"o":"m 181 404 l 181 561 q 172 604 181 590 q 149 618 163 618 l 142 618 q 118 604 128 618 q 108 561 108 590 l 108 126 q 118 83 108 96 q 139 69 128 69 l 149 69 q 172 83 163 69 q 181 126 181 96 l 181 286 l 268 286 l 268 125 q 235 29 268 63 q 156 -4 203 -4 l 131 -4 q 53 30 86 -4 q 21 125 21 64 l 21 563 q 53 658 21 625 q 133 692 85 692 l 156 692 q 235 658 203 692 q 268 564 268 625 l 268 404 l 181 404 m 174 758 l 111 758 l 111 854 l 174 854 l 174 758 z "},"Ď":{"ha":319,"x_min":25,"x_max":297,"o":"m 25 0 l 25 971 l 172 971 q 217 964 194 971 q 258 941 240 957 q 286 900 275 925 q 297 839 297 875 l 297 132 q 286 71 297 96 q 258 30 275 46 q 217 7 240 14 q 172 0 194 0 l 25 0 m 119 892 l 119 79 l 165 79 q 192 94 181 79 q 203 146 203 108 l 203 825 q 192 877 203 863 q 165 892 181 892 l 119 892 m 117 1026 l 36 1146 l 119 1146 l 160 1071 l 200 1146 l 283 1146 l 203 1026 l 117 1026 z "},"ď":{"ha":411,"x_min":21,"x_max":413,"o":"m 108 -4 q 40 30 60 -4 q 21 124 21 64 l 21 564 q 40 658 21 624 q 106 692 58 692 l 110 692 q 146 681 128 692 q 181 653 164 671 l 181 971 l 268 971 l 268 0 l 197 0 l 188 39 q 151 8 171 19 q 113 -4 132 -4 l 108 -4 m 142 618 q 118 604 128 618 q 108 561 108 590 l 108 126 q 117 83 108 96 q 140 69 126 69 l 143 69 q 167 83 157 69 q 181 122 178 96 l 181 556 q 169 601 181 585 q 144 618 158 618 l 142 618 m 413 843 l 379 758 l 340 758 l 361 843 l 318 843 l 318 971 l 413 971 l 413 843 z "},"Ĕ":{"ha":263,"x_min":25,"x_max":250,"o":"m 243 892 l 243 971 l 25 971 l 25 0 l 250 0 l 250 79 l 119 79 l 119 450 l 215 450 l 215 521 l 119 521 l 119 892 l 243 892 m 100 1133 q 111 1106 100 1118 q 138 1094 122 1094 q 165 1106 153 1094 q 178 1133 178 1118 l 233 1133 q 206 1069 233 1097 q 138 1040 178 1040 q 74 1068 101 1040 q 46 1133 46 1096 l 100 1133 z "},"Ė":{"ha":263,"x_min":25,"x_max":250,"o":"m 243 892 l 243 971 l 25 971 l 25 0 l 250 0 l 250 79 l 119 79 l 119 450 l 215 450 l 215 521 l 119 521 l 119 892 l 243 892 m 167 1040 l 104 1040 l 104 1135 l 167 1135 l 167 1040 z "},"Ē":{"ha":263,"x_min":25,"x_max":250,"o":"m 119 892 l 119 521 l 215 521 l 215 450 l 119 450 l 119 79 l 250 79 l 250 0 l 25 0 l 25 971 l 243 971 l 243 892 l 119 892 m 229 1054 l 44 1054 l 44 1119 l 229 1119 l 229 1054 z "},"Ę":{"ha":263,"x_min":25,"x_max":250,"o":"m 213 -90 q 177 -126 200 -115 q 131 -133 154 -136 q 90 -115 107 -131 q 72 -71 72 -99 q 83 -32 72 -49 q 111 0 93 -15 l 25 0 l 25 971 l 243 971 l 243 892 l 119 892 l 119 521 l 215 521 l 215 450 l 119 450 l 119 79 l 250 79 l 250 0 l 181 0 q 140 -26 156 -7 q 125 -60 124 -44 q 147 -87 126 -85 q 181 -69 167 -90 l 213 -90 z "},"ę":{"ha":286,"x_min":21,"x_max":268,"o":"m 218 -94 q 183 -130 206 -119 q 136 -137 160 -140 q 95 -119 113 -135 q 78 -75 78 -103 q 88 -36 78 -54 q 117 -3 99 -18 q 49 35 76 1 q 21 125 21 68 l 21 563 q 53 658 21 625 q 133 692 85 692 l 156 692 q 235 658 203 692 q 268 564 268 625 l 268 324 l 108 324 l 108 126 q 118 83 108 96 q 139 69 128 69 l 149 69 q 172 83 163 69 q 181 126 181 96 l 181 286 l 268 286 l 268 125 q 243 40 268 72 q 181 -1 218 7 q 144 -32 158 -15 q 131 -64 129 -49 q 152 -92 132 -89 q 186 -74 172 -94 l 218 -94 m 181 385 l 181 561 q 172 604 181 590 q 149 618 163 618 l 142 618 q 118 604 128 618 q 108 561 108 590 l 108 385 l 181 385 z "},"ě":{"ha":286,"x_min":19,"x_max":268,"o":"m 139 69 l 149 69 q 172 83 163 69 q 181 126 181 96 l 181 286 l 268 286 l 268 125 q 235 29 268 63 q 156 -4 203 -4 l 131 -4 q 53 30 86 -4 q 21 125 21 64 l 21 563 q 53 658 21 625 q 133 692 85 692 l 156 692 q 235 658 203 692 q 268 564 268 625 l 268 324 l 108 324 l 108 126 q 118 83 108 96 q 139 69 128 69 m 100 746 l 19 865 l 103 865 l 143 790 l 183 865 l 265 865 l 185 746 l 100 746 m 181 385 l 181 561 q 172 604 181 590 q 149 618 163 618 l 142 618 q 118 604 128 618 q 108 561 108 590 l 108 385 l 181 385 z "},"ĕ":{"ha":286,"x_min":21,"x_max":268,"o":"m 139 69 l 149 69 q 172 83 163 69 q 181 126 181 96 l 181 286 l 268 286 l 268 125 q 235 29 268 63 q 156 -4 203 -4 l 131 -4 q 53 30 86 -4 q 21 125 21 64 l 21 563 q 53 658 21 625 q 133 692 85 692 l 156 692 q 235 658 203 692 q 268 564 268 625 l 268 324 l 108 324 l 108 126 q 118 83 108 96 q 139 69 128 69 m 181 385 l 181 561 q 172 604 181 590 q 149 618 163 618 l 142 618 q 118 604 128 618 q 108 561 108 590 l 108 385 l 181 385 m 106 851 q 117 824 106 836 q 144 813 129 813 q 172 824 160 813 q 183 851 183 836 l 239 851 q 211 787 239 815 q 143 758 183 758 q 79 786 107 758 q 51 851 51 814 l 106 851 z "},"ė":{"ha":286,"x_min":21,"x_max":268,"o":"m 139 69 l 149 69 q 172 83 163 69 q 181 126 181 96 l 181 286 l 268 286 l 268 125 q 235 29 268 63 q 156 -4 203 -4 l 131 -4 q 53 30 86 -4 q 21 125 21 64 l 21 563 q 53 658 21 625 q 133 692 85 692 l 156 692 q 235 658 203 692 q 268 564 268 625 l 268 324 l 108 324 l 108 126 q 118 83 108 96 q 139 69 128 69 m 181 385 l 181 561 q 172 604 181 590 q 149 618 163 618 l 142 618 q 118 604 128 618 q 108 561 108 590 l 108 385 l 181 385 m 172 758 l 111 758 l 111 854 l 172 854 l 172 758 z "},"ē":{"ha":286,"x_min":21,"x_max":268,"o":"m 139 69 l 149 69 q 172 83 163 69 q 181 126 181 96 l 181 286 l 268 286 l 268 125 q 235 29 268 63 q 156 -4 203 -4 l 131 -4 q 53 30 86 -4 q 21 125 21 64 l 21 563 q 53 658 21 625 q 133 692 85 692 l 156 692 q 235 658 203 692 q 268 564 268 625 l 268 324 l 108 324 l 108 126 q 118 83 108 96 q 139 69 128 69 m 181 385 l 181 561 q 172 604 181 590 q 149 618 163 618 l 142 618 q 118 604 128 618 q 108 561 108 590 l 108 385 l 181 385 m 235 774 l 50 774 l 50 838 l 235 838 l 235 774 z "},"Ě":{"ha":263,"x_min":14,"x_max":260,"o":"m 243 892 l 243 971 l 25 971 l 25 0 l 250 0 l 250 79 l 119 79 l 119 450 l 215 450 l 215 521 l 119 521 l 119 892 l 243 892 m 94 1026 l 14 1146 l 96 1146 l 136 1071 l 176 1146 l 260 1146 l 179 1026 l 94 1026 z "},"Ĝ":{"ha":317,"x_min":22,"x_max":294,"o":"m 147 -8 q 101 -1 124 -8 q 62 24 79 7 q 33 66 44 40 q 22 128 22 92 l 22 843 q 33 905 22 879 q 62 947 44 931 q 101 972 79 964 q 147 979 124 979 l 169 979 q 215 972 192 979 q 255 947 238 964 q 283 905 272 931 q 294 843 294 879 l 294 579 l 200 579 l 200 831 q 189 884 200 868 q 163 900 178 900 l 154 900 q 128 885 139 900 q 117 829 117 869 l 117 142 q 128 87 117 103 q 154 71 139 71 l 163 71 q 189 87 178 71 q 200 142 200 103 l 200 314 l 158 314 l 158 393 l 294 393 l 294 0 l 249 0 l 238 32 q 196 2 218 13 q 156 -8 174 -8 l 147 -8 m 201 1144 l 282 1025 l 200 1025 l 158 1101 l 118 1025 l 36 1025 l 117 1144 l 201 1144 z "},"Ğ":{"ha":317,"x_min":22,"x_max":294,"o":"m 158 393 l 294 393 l 294 0 l 249 0 l 238 32 q 196 2 218 13 q 156 -8 174 -8 l 147 -8 q 101 -1 124 -8 q 62 24 79 7 q 33 66 44 40 q 22 128 22 92 l 22 843 q 33 905 22 879 q 62 947 44 931 q 101 972 79 964 q 147 979 124 979 l 169 979 q 215 972 192 979 q 255 947 238 964 q 283 905 272 931 q 294 843 294 879 l 294 579 l 200 579 l 200 831 q 189 884 200 868 q 163 900 178 900 l 154 900 q 128 885 139 900 q 117 829 117 869 l 117 142 q 128 87 117 103 q 154 71 139 71 l 163 71 q 189 87 178 71 q 200 142 200 103 l 200 314 l 158 314 l 158 393 m 121 1133 q 133 1106 121 1118 q 160 1094 144 1094 q 187 1106 175 1094 q 199 1133 199 1118 l 254 1133 q 226 1069 254 1097 q 158 1040 199 1040 q 94 1068 122 1040 q 67 1133 67 1096 l 121 1133 z "},"Ġ":{"ha":317,"x_min":22,"x_max":294,"o":"m 147 -8 q 101 -1 124 -8 q 62 24 79 7 q 33 66 44 40 q 22 128 22 92 l 22 843 q 33 905 22 879 q 62 947 44 931 q 101 972 79 964 q 147 979 124 979 l 169 979 q 215 972 192 979 q 255 947 238 964 q 283 905 272 931 q 294 843 294 879 l 294 579 l 200 579 l 200 831 q 189 884 200 868 q 163 900 178 900 l 154 900 q 128 885 139 900 q 117 829 117 869 l 117 142 q 128 87 117 103 q 154 71 139 71 l 163 71 q 189 87 178 71 q 200 142 200 103 l 200 314 l 158 314 l 158 393 l 294 393 l 294 160 l 294 153 l 294 0 l 249 0 l 238 32 q 196 2 218 13 q 156 -8 174 -8 l 147 -8 m 188 1040 l 125 1040 l 125 1135 l 188 1135 l 188 1040 z "},"Ģ":{"ha":317,"x_min":22,"x_max":294,"o":"m 158 393 l 294 393 l 294 160 l 294 153 l 294 0 l 249 0 l 238 32 q 196 2 218 13 q 156 -8 174 -8 l 147 -8 q 101 -1 124 -8 q 62 24 79 7 q 33 66 44 40 q 22 128 22 92 l 22 843 q 33 905 22 879 q 62 947 44 931 q 101 972 79 964 q 147 979 124 979 l 169 979 q 215 972 192 979 q 255 947 238 964 q 283 905 272 931 q 294 843 294 879 l 294 579 l 200 579 l 200 831 q 189 884 200 868 q 163 900 178 900 l 154 900 q 128 885 139 900 q 117 829 117 869 l 117 142 q 128 87 117 103 q 154 71 139 71 l 163 71 q 189 87 178 71 q 200 142 200 103 l 200 314 l 158 314 l 158 393 m 200 -169 l 167 -254 l 126 -254 l 147 -169 l 104 -169 l 104 -42 l 200 -42 l 200 -169 z "},"ĝ":{"ha":289,"x_min":19,"x_max":268,"o":"m 268 688 l 268 -100 q 235 -195 268 -161 q 158 -229 203 -229 l 133 -229 q 53 -196 86 -229 q 21 -100 21 -162 l 21 -40 l 108 -40 l 108 -99 q 117 -142 108 -129 q 140 -156 126 -156 l 150 -156 q 171 -142 161 -156 q 181 -99 181 -129 l 181 32 q 144 6 163 15 q 110 -4 126 -4 l 106 -4 q 40 30 58 -4 q 21 124 21 64 l 21 564 q 40 658 21 624 q 108 692 60 692 l 113 692 q 183 656 147 692 l 197 688 l 268 688 m 143 69 q 169 86 158 69 q 181 132 181 103 l 181 564 q 167 604 178 590 q 143 618 157 618 l 140 618 q 117 605 126 618 q 108 561 108 592 l 108 126 q 117 83 108 97 q 140 69 126 69 l 143 69 m 186 863 l 267 743 l 183 743 l 143 818 l 103 743 l 19 743 l 100 863 l 186 863 z "},"ğ":{"ha":289,"x_min":21,"x_max":268,"o":"m 197 688 l 183 656 q 113 692 147 692 l 108 692 q 40 658 60 692 q 21 564 21 624 l 21 124 q 40 30 21 64 q 106 -4 58 -4 l 110 -4 q 144 6 126 -4 q 181 32 163 15 l 181 -99 q 171 -142 181 -129 q 150 -156 161 -156 l 140 -156 q 117 -142 126 -156 q 108 -99 108 -129 l 108 -40 l 21 -40 l 21 -100 q 53 -196 21 -162 q 133 -229 86 -229 l 158 -229 q 235 -195 203 -229 q 268 -100 268 -161 l 268 688 l 197 688 m 140 69 q 117 83 126 69 q 108 126 108 97 l 108 561 q 117 605 108 592 q 140 618 126 618 l 143 618 q 167 604 157 618 q 181 564 178 590 l 181 124 q 167 83 178 97 q 143 69 157 69 l 140 69 m 106 851 q 117 824 106 836 q 143 813 128 813 q 170 824 158 813 q 182 851 182 836 l 239 851 q 211 787 239 815 q 143 758 183 758 q 79 786 107 758 q 51 851 51 814 l 106 851 z "},"ġ":{"ha":289,"x_min":21,"x_max":268,"o":"m 197 688 l 183 656 q 113 692 147 692 l 108 692 q 40 658 60 692 q 21 564 21 624 l 21 124 q 40 30 21 64 q 106 -4 58 -4 l 110 -4 q 144 6 126 -4 q 181 32 163 15 l 181 -99 q 171 -142 181 -129 q 150 -156 161 -156 l 140 -156 q 117 -142 126 -156 q 108 -99 108 -129 l 108 -40 l 21 -40 l 21 -100 q 53 -196 21 -162 q 133 -229 86 -229 l 158 -229 q 235 -195 203 -229 q 268 -100 268 -161 l 268 688 l 197 688 m 140 69 q 117 83 126 69 q 108 126 108 97 l 108 561 q 117 605 108 592 q 140 618 126 618 l 143 618 q 169 602 158 618 q 181 556 181 586 l 181 124 q 167 83 178 97 q 143 69 157 69 l 140 69 m 172 758 l 110 758 l 110 854 l 172 854 l 172 758 z "},"ģ":{"ha":289,"x_min":21,"x_max":268,"o":"m 197 688 l 183 656 q 113 692 147 692 l 108 692 q 40 658 60 692 q 21 564 21 624 l 21 124 q 40 30 21 64 q 106 -4 58 -4 l 110 -4 q 144 6 126 -4 q 181 32 163 15 l 181 -99 q 171 -142 181 -129 q 150 -156 161 -156 l 140 -156 q 117 -142 126 -156 q 108 -99 108 -129 l 108 -40 l 21 -40 l 21 -100 q 53 -196 21 -162 q 133 -229 86 -229 l 158 -229 q 235 -195 203 -229 q 268 -100 268 -161 l 268 688 l 197 688 m 140 69 q 117 83 126 69 q 108 126 108 97 l 108 561 q 117 605 108 592 q 140 618 126 618 l 143 618 q 169 602 158 618 q 181 556 181 586 l 181 132 q 169 86 181 103 q 143 69 158 69 l 140 69 m 107 838 l 131 901 l 168 901 l 151 838 l 175 838 l 175 743 l 107 743 l 107 838 z "},"Ĥ":{"ha":317,"x_min":25,"x_max":292,"o":"m 292 971 l 292 0 l 199 0 l 199 450 l 119 450 l 119 0 l 25 0 l 25 971 l 119 971 l 119 519 l 199 519 l 199 971 l 292 971 m 201 1144 l 282 1025 l 200 1025 l 158 1101 l 118 1025 l 36 1025 l 117 1144 l 201 1144 z "},"ĥ":{"ha":293,"x_min":-54,"x_max":274,"o":"m 151 618 q 126 603 138 618 q 113 563 115 588 l 113 0 l 25 0 l 25 971 l 113 971 l 113 651 q 147 681 129 669 q 185 692 165 692 l 189 692 q 255 658 236 692 q 274 564 274 624 l 274 0 l 186 0 l 186 561 q 177 605 186 592 q 154 618 168 618 l 151 618 m 111 1144 l 192 1025 l 108 1025 l 68 1100 l 28 1025 l -54 1025 l 26 1144 l 111 1144 z "},"Ħ":{"ha":317,"x_min":0,"x_max":317,"o":"m 25 721 l 25 971 l 119 971 l 119 721 l 199 721 l 199 971 l 292 971 l 292 721 l 317 721 l 317 657 l 292 657 l 292 0 l 199 0 l 199 450 l 119 450 l 119 0 l 25 0 l 25 657 l 0 657 l 0 721 l 25 721 m 199 519 l 199 657 l 119 657 l 119 519 l 199 519 z "},"ħ":{"ha":293,"x_min":-14,"x_max":274,"o":"m 151 618 q 126 603 138 618 q 113 563 115 588 l 113 0 l 25 0 l 25 822 l -14 822 l -14 886 l 25 886 l 25 971 l 113 971 l 113 886 l 179 886 l 179 822 l 113 822 l 113 651 q 147 681 129 669 q 185 692 165 692 l 189 692 q 255 658 236 692 q 274 564 274 624 l 274 0 l 186 0 l 186 561 q 177 605 186 592 q 154 618 168 618 l 151 618 z "},"Ĩ":{"ha":144,"x_min":-43,"x_max":189,"o":"m 25 971 l 25 0 l 119 0 l 119 971 l 25 971 m -43 1088 q -14 1124 -31 1113 q 19 1135 3 1135 q 65 1121 43 1135 q 111 1107 88 1107 q 147 1126 128 1107 l 189 1099 q 158 1064 174 1074 q 124 1054 142 1054 q 77 1067 99 1054 q 36 1081 56 1081 q 16 1076 25 1081 q -4 1061 7 1072 l -43 1088 z "},"Ĭ":{"ha":144,"x_min":-19,"x_max":168,"o":"m 25 971 l 25 0 l 119 0 l 119 971 l 25 971 m 35 1140 q 46 1113 35 1125 q 72 1101 57 1101 q 100 1113 88 1101 q 113 1140 113 1125 l 168 1140 q 140 1076 168 1104 q 72 1047 113 1047 q 8 1075 36 1047 q -19 1140 -19 1103 l 35 1140 z "},"İ":{"ha":144,"x_min":25,"x_max":119,"o":"m 25 971 l 25 0 l 119 0 l 119 971 l 25 971 m 101 1047 l 39 1047 l 39 1143 l 101 1143 l 101 1047 z "},"Ī":{"ha":144,"x_min":-21,"x_max":164,"o":"m 119 971 l 119 0 l 25 0 l 25 971 l 119 971 m 164 1063 l -21 1063 l -21 1126 l 164 1126 l 164 1063 z "},"Į":{"ha":144,"x_min":7,"x_max":147,"o":"m 147 -90 q 112 -126 135 -115 q 65 -133 89 -136 q 24 -115 42 -131 q 7 -71 7 -99 q 17 -32 7 -49 q 46 0 28 -15 l 25 0 l 25 971 l 119 971 l 119 0 l 115 0 q 74 -26 90 -7 q 60 -60 58 -44 q 81 -87 61 -85 q 115 -69 101 -90 l 147 -90 z "},"į":{"ha":133,"x_min":1,"x_max":142,"o":"m 142 -90 q 106 -126 129 -115 q 60 -133 83 -136 q 19 -115 36 -131 q 1 -71 1 -99 q 40 0 1 -31 l 25 0 l 25 688 l 113 688 l 113 0 l 110 0 q 69 -26 85 -7 q 54 -60 53 -44 q 75 -87 54 -85 q 110 -69 96 -90 l 142 -90 m 113 861 l 113 742 l 25 742 l 25 861 l 113 861 z "},"ĩ":{"ha":133,"x_min":-46,"x_max":186,"o":"m 25 688 l 25 0 l 113 0 l 113 688 l 25 688 m -46 797 q -17 833 -33 822 q 17 844 0 844 q 62 831 40 844 q 107 817 83 817 q 143 836 125 817 l 186 808 q 154 773 171 782 q 119 764 138 764 q 74 777 94 764 q 33 790 53 790 q 13 786 22 790 q -8 771 3 782 l -46 797 z "},"ĭ":{"ha":133,"x_min":-22,"x_max":164,"o":"m 25 688 l 25 0 l 113 0 l 113 688 l 25 688 m 32 850 q 43 823 32 835 q 69 811 54 811 q 97 823 85 811 q 108 850 108 835 l 164 850 q 136 785 164 814 q 68 757 108 757 q 5 785 32 757 q -22 850 -22 813 l 32 850 z "},"ī":{"ha":133,"x_min":-24,"x_max":160,"o":"m 113 688 l 113 0 l 25 0 l 25 688 l 113 688 m 160 771 l -24 771 l -24 836 l 160 836 l 160 771 z "},"Ĵ":{"ha":317,"x_min":22,"x_max":371,"o":"m 147 -8 q 103 -1 125 -8 q 63 24 81 7 q 33 66 44 40 q 22 128 22 92 l 22 390 l 117 390 l 117 142 q 128 87 117 103 q 154 71 139 71 l 163 71 q 189 87 178 71 q 200 142 200 103 l 200 971 l 294 971 l 294 128 q 284 66 294 92 q 256 24 274 40 q 215 -1 238 7 q 169 -8 193 -8 l 147 -8 m 290 1144 l 371 1025 l 289 1025 l 249 1100 l 208 1025 l 125 1025 l 206 1144 l 290 1144 z "},"ĵ":{"ha":188,"x_min":0,"x_max":247,"o":"m 165 688 l 165 -101 q 133 -195 165 -161 q 22 -229 100 -229 l 22 -156 q 64 -142 49 -156 q 79 -101 79 -129 l 79 688 l 165 688 m 167 864 l 247 744 l 164 744 l 124 819 l 83 744 l 0 744 l 81 864 l 167 864 z "},"Ķ":{"ha":315,"x_min":25,"x_max":313,"o":"m 186 503 l 310 0 l 224 0 l 121 378 l 119 378 l 119 0 l 25 0 l 25 971 l 119 971 l 119 592 l 121 592 l 226 971 l 313 971 l 186 503 m 215 -153 l 182 -237 l 143 -237 l 164 -153 l 121 -153 l 121 -25 l 215 -25 l 215 -153 z "},"ķ":{"ha":289,"x_min":25,"x_max":286,"o":"m 165 358 l 286 0 l 197 0 l 111 258 l 111 0 l 25 0 l 25 971 l 111 971 l 111 447 l 201 688 l 285 688 l 165 358 m 200 -154 l 167 -239 l 126 -239 l 147 -154 l 104 -154 l 104 -26 l 200 -26 l 200 -154 z "},"Ļ":{"ha":240,"x_min":25,"x_max":236,"o":"m 119 971 l 119 71 l 236 71 l 236 0 l 25 0 l 25 971 l 119 971 m 174 -169 l 140 -254 l 100 -254 l 121 -169 l 78 -169 l 78 -42 l 174 -42 l 174 -169 z "},"Ĺ":{"ha":240,"x_min":25,"x_max":236,"o":"m 119 971 l 119 71 l 236 71 l 236 0 l 25 0 l 25 971 l 119 971 m 43 1025 l 99 1144 l 181 1144 l 100 1025 l 43 1025 z "},"Ŀ":{"ha":297,"x_min":25,"x_max":282,"o":"m 119 971 l 119 71 l 236 71 l 236 0 l 25 0 l 25 971 l 119 971 m 282 340 l 186 340 l 186 468 l 282 468 l 282 340 z "},"ŀ":{"ha":265,"x_min":25,"x_max":246,"o":"m 25 971 l 113 971 l 113 0 l 25 0 l 25 971 m 246 396 l 150 396 l 150 524 l 246 524 l 246 396 z "},"ļ":{"ha":132,"x_min":19,"x_max":115,"o":"m 25 971 l 113 971 l 113 0 l 25 0 l 25 971 m 115 -157 l 82 -242 l 43 -242 l 64 -157 l 19 -157 l 19 -29 l 115 -29 l 115 -157 z "},"ľ":{"ha":253,"x_min":25,"x_max":236,"o":"m 25 971 l 113 971 l 113 0 l 25 0 l 25 971 m 236 843 l 203 758 l 164 758 l 185 843 l 142 843 l 142 971 l 236 971 l 236 843 z "},"Ő":{"ha":317,"x_min":22,"x_max":319,"o":"m 147 -8 q 101 -1 124 -8 q 62 24 79 7 q 33 66 44 40 q 22 128 22 92 l 22 843 q 33 905 22 879 q 62 947 44 931 q 101 972 79 964 q 147 979 124 979 l 169 979 q 215 972 192 979 q 255 947 238 964 q 283 905 272 931 q 294 843 294 879 l 294 128 q 283 66 294 92 q 255 24 272 40 q 215 -1 238 7 q 169 -8 192 -8 l 147 -8 m 154 900 q 128 883 139 900 q 117 829 117 867 l 117 142 q 128 87 117 103 q 154 71 139 71 l 163 71 q 189 87 178 71 q 200 142 200 103 l 200 829 q 189 883 200 867 q 163 900 178 900 l 154 900 m 181 1022 l 236 1142 l 319 1142 l 239 1022 l 181 1022 m 72 1022 l 128 1142 l 211 1142 l 131 1022 l 72 1022 z "},"ő":{"ha":286,"x_min":21,"x_max":306,"o":"m 133 -4 q 53 30 85 -4 q 21 124 21 64 l 21 564 q 53 658 22 624 q 133 692 85 692 l 156 692 q 235 658 203 692 q 268 564 268 624 l 268 124 q 235 30 268 64 q 156 -4 203 -4 l 133 -4 m 142 618 q 118 604 128 618 q 108 561 108 590 l 108 126 q 118 83 108 96 q 142 69 128 69 l 149 69 q 172 83 163 69 q 181 126 181 96 l 181 561 q 172 604 181 590 q 149 618 163 618 l 142 618 m 167 740 l 222 860 l 306 860 l 225 740 l 167 740 m 58 740 l 114 860 l 197 860 l 117 740 l 58 740 z "},"Ŕ":{"ha":328,"x_min":25,"x_max":313,"o":"m 297 579 q 283 513 297 535 q 249 485 269 492 q 283 458 269 479 q 297 392 297 436 l 297 165 q 303 42 297 78 q 313 0 308 7 l 218 0 q 206 56 208 17 q 203 165 203 94 l 203 383 q 169 450 203 450 l 119 450 l 119 0 l 25 0 l 25 971 l 174 971 q 260 937 224 971 q 297 836 297 903 l 297 579 m 169 519 q 203 585 203 519 l 203 822 q 192 875 203 858 q 164 892 181 892 l 119 892 l 119 519 l 169 519 m 117 1025 l 172 1144 l 256 1144 l 175 1025 l 117 1025 z "},"ŕ":{"ha":289,"x_min":22,"x_max":271,"o":"m 149 618 q 122 601 135 618 q 110 554 110 583 l 110 0 l 22 0 l 22 688 l 110 688 l 110 651 q 145 681 126 669 q 183 692 164 692 l 186 692 q 257 649 238 692 q 271 564 271 619 l 271 404 l 183 404 l 183 561 q 174 605 183 592 q 151 618 165 618 l 149 618 m 108 743 l 164 863 l 246 863 l 165 743 l 108 743 z "},"Ŗ":{"ha":328,"x_min":25,"x_max":313,"o":"m 297 579 q 283 513 297 535 q 249 485 269 492 q 283 458 269 479 q 297 392 297 436 l 297 165 q 303 42 297 78 q 313 0 308 7 l 218 0 q 206 56 208 17 q 203 165 203 94 l 203 383 q 169 450 203 450 l 119 450 l 119 0 l 25 0 l 25 971 l 174 971 q 260 937 224 971 q 297 836 297 903 l 297 579 m 169 519 q 203 585 203 519 l 203 822 q 192 875 203 858 q 164 892 181 892 l 119 892 l 119 519 l 169 519 m 210 -169 l 176 -254 l 138 -254 l 158 -169 l 114 -169 l 114 -42 l 210 -42 l 210 -169 z "},"Ř":{"ha":328,"x_min":22,"x_max":313,"o":"m 297 836 q 260 937 297 903 q 174 971 224 971 l 25 971 l 25 0 l 119 0 l 119 450 l 169 450 q 203 383 203 450 l 203 165 q 206 56 203 94 q 218 0 208 17 l 313 0 q 303 42 308 7 q 297 165 297 78 l 297 392 q 283 458 297 436 q 249 485 269 479 q 283 513 269 492 q 297 579 297 535 l 297 836 m 119 519 l 119 892 l 164 892 q 192 875 181 892 q 203 822 203 858 l 203 585 q 169 519 203 519 l 119 519 m 103 1026 l 22 1146 l 106 1146 l 146 1071 l 186 1146 l 269 1146 l 189 1026 l 103 1026 z "},"ŗ":{"ha":289,"x_min":22,"x_max":271,"o":"m 149 618 q 124 603 136 618 q 110 563 113 588 l 110 0 l 22 0 l 22 688 l 110 688 l 110 651 q 145 681 126 669 q 183 692 164 692 l 186 692 q 257 649 238 692 q 271 564 271 619 l 271 404 l 183 404 l 183 561 q 174 605 183 592 q 151 618 165 618 l 149 618 m 204 -169 l 171 -254 l 132 -254 l 153 -169 l 110 -169 l 110 -42 l 204 -42 l 204 -169 z "},"ř":{"ha":289,"x_min":14,"x_max":271,"o":"m 151 618 q 174 605 165 618 q 183 561 183 592 l 183 404 l 271 404 l 271 564 q 257 649 271 619 q 186 692 238 692 l 183 692 q 145 681 164 692 q 110 651 126 669 l 110 688 l 22 688 l 22 0 l 110 0 l 110 563 q 124 603 113 588 q 149 618 136 618 l 151 618 m 94 746 l 14 865 l 97 865 l 138 790 l 178 865 l 260 865 l 179 746 l 94 746 z "},"Ŝ":{"ha":317,"x_min":22,"x_max":294,"o":"m 200 581 l 200 831 q 189 884 200 868 q 163 900 178 900 l 154 900 q 128 885 139 900 q 117 829 117 869 l 117 706 q 144 589 117 639 q 206 493 172 539 q 267 398 239 447 q 294 281 294 349 l 294 128 q 284 66 294 92 q 256 24 274 40 q 215 -1 238 7 q 169 -8 193 -8 l 150 -8 q 104 -1 126 -8 q 63 24 82 7 q 33 66 44 40 q 22 128 22 92 l 22 392 l 108 392 l 108 142 q 121 87 108 103 q 151 71 133 71 l 158 71 q 188 87 176 71 q 200 142 200 103 l 200 265 q 172 381 200 332 q 111 476 144 431 q 50 572 78 522 q 22 690 22 622 l 22 843 q 33 905 22 879 q 63 947 44 931 q 103 972 81 964 q 149 979 125 979 l 163 979 q 207 972 185 979 q 247 947 229 964 q 276 905 265 931 q 286 843 286 879 l 286 581 l 200 581 m 201 1144 l 282 1025 l 199 1025 l 158 1100 l 118 1025 l 36 1025 l 117 1144 l 201 1144 z "},"Ś":{"ha":317,"x_min":22,"x_max":294,"o":"m 200 581 l 200 831 q 189 884 200 868 q 163 900 178 900 l 154 900 q 128 885 139 900 q 117 829 117 869 l 117 706 q 144 589 117 639 q 206 493 172 539 q 267 398 239 447 q 294 281 294 349 l 294 128 q 284 66 294 92 q 256 24 274 40 q 215 -1 238 7 q 169 -8 193 -8 l 150 -8 q 104 -1 126 -8 q 63 24 82 7 q 33 66 44 40 q 22 128 22 92 l 22 392 l 108 392 l 108 142 q 121 87 108 103 q 151 71 133 71 l 158 71 q 188 87 176 71 q 200 142 200 103 l 200 265 q 172 381 200 332 q 111 476 144 431 q 50 572 78 522 q 22 690 22 622 l 22 843 q 33 905 22 879 q 63 947 44 931 q 103 972 81 964 q 149 979 125 979 l 163 979 q 207 972 185 979 q 247 947 229 964 q 276 905 265 931 q 286 843 286 879 l 286 581 l 200 581 m 128 1025 l 183 1144 l 267 1144 l 186 1025 l 128 1025 z "},"Ş":{"ha":317,"x_min":22,"x_max":294,"o":"m 85 -96 q 115 -110 97 -106 q 149 -112 133 -114 q 174 -101 164 -110 q 183 -78 185 -93 q 163 -56 181 -61 q 129 -61 144 -51 l 110 -54 l 133 -7 q 56 30 90 -1 q 22 128 22 61 l 22 392 l 108 392 l 108 142 q 121 87 108 103 q 151 71 133 71 l 158 71 q 188 87 176 71 q 200 142 200 103 l 200 265 q 172 381 200 332 q 111 476 144 431 q 50 572 78 522 q 22 690 22 622 l 22 843 q 33 905 22 879 q 63 947 44 931 q 103 972 81 964 q 149 979 125 979 l 163 979 q 207 972 185 979 q 247 947 229 964 q 276 905 265 931 q 286 843 286 879 l 286 581 l 200 581 l 200 831 q 189 884 200 868 q 163 900 178 900 l 154 900 q 128 885 139 900 q 117 829 117 869 l 117 706 q 144 589 117 639 q 206 493 172 539 q 267 398 239 447 q 294 281 294 349 l 294 128 q 261 30 294 61 q 186 -7 228 -1 l 175 -36 q 223 -37 200 -25 q 246 -76 246 -49 q 225 -131 246 -112 q 176 -156 204 -150 q 119 -157 147 -162 q 75 -139 90 -151 l 85 -96 z "},"Ű":{"ha":319,"x_min":25,"x_max":299,"o":"m 150 -8 q 104 -1 126 -8 q 65 24 82 7 q 36 66 47 40 q 25 128 25 92 l 25 971 l 119 971 l 119 142 q 131 87 119 103 q 157 71 142 71 l 165 71 q 192 87 181 71 q 203 142 203 103 l 203 971 l 297 971 l 297 128 q 286 66 297 92 q 258 24 275 40 q 217 -1 240 7 q 172 -8 194 -8 l 150 -8 m 51 1022 l 107 1142 l 190 1142 l 110 1022 l 51 1022 m 160 1022 l 215 1142 l 299 1142 l 218 1022 l 160 1022 z "},"ų":{"ha":289,"x_min":19,"x_max":303,"o":"m 142 69 q 169 87 157 69 q 181 133 181 104 l 181 688 l 268 688 l 268 0 l 271 0 q 231 -26 246 -7 q 215 -60 215 -44 q 237 -87 217 -85 q 272 -69 257 -90 l 303 -90 q 268 -126 292 -115 q 222 -133 244 -136 q 181 -115 199 -131 q 164 -71 164 -99 q 203 0 164 -31 l 181 0 l 181 35 q 145 6 164 17 q 108 -4 126 -4 l 104 -4 q 38 30 56 -4 q 19 124 19 64 l 19 688 l 107 688 l 107 126 q 116 83 107 96 q 139 69 125 69 l 142 69 z "},"ű":{"ha":289,"x_min":19,"x_max":306,"o":"m 142 69 q 169 87 157 69 q 181 133 181 104 l 181 688 l 268 688 l 268 0 l 181 0 l 181 35 q 145 6 164 17 q 108 -4 126 -4 l 104 -4 q 38 30 56 -4 q 19 124 19 64 l 19 688 l 107 688 l 107 126 q 116 83 107 96 q 139 69 125 69 l 142 69 m 58 739 l 114 858 l 197 858 l 117 739 l 58 739 m 167 739 l 222 858 l 306 858 l 225 739 l 167 739 z "},"Ŵ":{"ha":471,"x_min":1,"x_max":469,"o":"m 74 0 l 1 971 l 92 971 l 136 324 l 139 324 l 199 971 l 274 971 l 339 324 l 342 324 l 388 971 l 469 971 l 397 0 l 304 0 l 238 601 l 236 601 l 178 0 l 74 0 m 276 1144 l 357 1025 l 275 1025 l 235 1100 l 194 1025 l 111 1025 l 192 1144 l 276 1144 z "},"ŵ":{"ha":446,"x_min":3,"x_max":443,"o":"m 72 0 l 3 688 l 85 688 l 128 229 l 129 229 l 188 688 l 264 688 l 324 229 l 325 229 l 369 688 l 443 688 l 372 0 l 276 0 l 219 497 l 217 497 l 168 0 l 72 0 m 268 861 l 349 742 l 267 742 l 225 818 l 185 742 l 103 742 l 183 861 l 268 861 z "},"Ŷ":{"ha":311,"x_min":4,"x_max":307,"o":"m 203 364 l 203 0 l 108 0 l 108 364 l 4 971 l 97 971 l 154 578 l 157 578 l 214 971 l 307 971 l 203 364 m 199 1144 l 279 1025 l 197 1025 l 156 1101 l 115 1025 l 33 1025 l 114 1144 l 199 1144 z "},"ŷ":{"ha":260,"x_min":3,"x_max":258,"o":"m 186 688 l 257 688 l 164 -229 l 78 -229 l 104 0 l 3 688 l 82 688 l 133 243 l 138 243 l 186 688 m 178 861 l 258 742 l 175 742 l 135 817 l 94 742 l 13 742 l 93 861 l 178 861 z "},"Ÿ":{"ha":311,"x_min":4,"x_max":307,"o":"m 307 971 l 214 971 l 157 578 l 154 578 l 97 971 l 4 971 l 108 364 l 108 0 l 203 0 l 203 364 l 307 971 m 132 1040 l 71 1040 l 71 1135 l 132 1135 l 132 1040 m 242 1040 l 179 1040 l 179 1135 l 242 1135 l 242 1040 z "},"Ź":{"ha":303,"x_min":13,"x_max":290,"o":"m 290 0 l 13 0 l 13 68 l 182 900 l 38 900 l 38 971 l 276 971 l 276 903 l 107 71 l 290 71 l 290 0 m 121 1025 l 176 1144 l 260 1144 l 179 1025 l 121 1025 z "},"Ž":{"ha":303,"x_min":13,"x_max":290,"o":"m 290 0 l 13 0 l 13 68 l 182 900 l 38 900 l 38 971 l 276 971 l 276 903 l 107 71 l 290 71 l 290 0 m 108 1028 l 28 1147 l 110 1147 l 150 1072 l 190 1147 l 274 1147 l 193 1028 l 108 1028 z "},"Ż":{"ha":303,"x_min":13,"x_max":290,"o":"m 290 0 l 13 0 l 13 68 l 182 900 l 38 900 l 38 971 l 276 971 l 276 903 l 107 71 l 290 71 l 290 0 m 181 1042 l 118 1042 l 118 1136 l 181 1136 l 181 1042 z "},"ź":{"ha":251,"x_min":3,"x_max":246,"o":"m 246 0 l 3 0 l 3 71 l 160 617 l 18 617 l 18 688 l 244 688 l 244 618 l 89 71 l 246 71 l 246 0 m 100 743 l 156 863 l 239 863 l 158 743 l 100 743 z "},"ž":{"ha":251,"x_min":3,"x_max":253,"o":"m 246 0 l 3 0 l 3 71 l 160 617 l 18 617 l 18 688 l 244 688 l 244 618 l 89 71 l 246 71 l 246 0 m 88 746 l 7 865 l 89 865 l 129 790 l 169 865 l 253 865 l 172 746 l 88 746 z "},"ż":{"ha":251,"x_min":3,"x_max":246,"o":"m 246 0 l 3 0 l 3 71 l 160 617 l 18 617 l 18 688 l 244 688 l 244 618 l 89 71 l 246 71 l 246 0 m 160 758 l 97 758 l 97 854 l 160 854 l 160 758 z "},"Š":{"ha":317,"x_min":22,"x_max":294,"o":"m 286 581 l 286 843 q 276 905 286 879 q 247 947 265 931 q 207 972 229 964 q 163 979 185 979 l 149 979 q 103 972 125 979 q 63 947 81 964 q 33 905 44 931 q 22 843 22 879 l 22 690 q 50 572 22 622 q 111 476 78 522 q 172 381 144 431 q 200 265 200 332 l 200 142 q 188 87 200 103 q 158 71 176 71 l 151 71 q 121 87 133 71 q 108 142 108 103 l 108 392 l 22 392 l 22 128 q 33 66 22 92 q 63 24 44 40 q 104 -1 82 7 q 150 -8 126 -8 l 169 -8 q 215 -1 193 -8 q 256 24 238 7 q 284 66 274 40 q 294 128 294 92 l 294 281 q 267 398 294 349 q 206 493 239 447 q 144 589 172 539 q 117 706 117 639 l 117 829 q 128 885 117 869 q 154 900 139 900 l 163 900 q 189 884 178 900 q 200 831 200 868 l 200 581 l 286 581 m 115 1028 l 35 1147 l 117 1147 l 157 1072 l 197 1147 l 281 1147 l 200 1028 l 115 1028 z "},"š":{"ha":286,"x_min":17,"x_max":267,"o":"m 258 417 l 258 564 q 226 658 258 624 q 146 692 194 692 l 133 692 q 53 658 85 692 q 21 564 21 624 l 21 485 q 46 397 21 432 q 101 331 71 361 q 156 271 131 301 q 181 197 181 240 l 181 126 q 170 84 181 99 q 144 69 160 69 l 138 69 q 110 84 121 69 q 100 126 100 99 l 100 271 l 21 271 l 21 124 q 53 30 21 64 q 135 -4 86 -4 l 156 -4 q 235 30 203 -4 q 267 124 267 64 l 267 203 q 242 289 267 254 q 188 353 217 324 q 133 415 158 383 q 108 490 108 446 l 108 561 q 118 603 108 589 q 142 618 128 618 l 147 618 q 171 603 161 618 q 181 561 181 589 l 181 417 l 258 417 m 97 746 l 17 865 l 99 865 l 139 790 l 179 865 l 263 865 l 182 746 l 97 746 z "},"Ţ":{"ha":288,"x_min":4,"x_max":283,"o":"m 283 892 l 190 892 l 190 0 l 97 0 l 97 892 l 4 892 l 4 971 l 283 971 l 283 892 m 58 -132 l 67 -90 q 97 -103 79 -99 q 131 -105 115 -107 q 158 -94 147 -103 q 167 -71 168 -86 q 146 -49 164 -54 q 113 -56 128 -44 l 93 -47 l 117 0 l 169 0 l 158 -29 q 206 -30 183 -18 q 229 -69 229 -42 q 208 -124 229 -106 q 158 -149 186 -143 q 101 -150 131 -156 q 58 -132 72 -144 z "},"Ť":{"ha":288,"x_min":4,"x_max":283,"o":"m 283 971 l 4 971 l 4 892 l 97 892 l 97 0 l 190 0 l 190 892 l 283 892 l 283 971 m 100 1026 l 19 1146 l 103 1146 l 143 1071 l 183 1146 l 267 1146 l 186 1026 l 100 1026 z "},"ť":{"ha":318,"x_min":11,"x_max":293,"o":"m 132 913 l 132 688 l 189 688 l 189 614 l 132 614 l 132 124 q 147 78 132 93 q 189 68 163 63 l 189 -1 q 123 1 150 -7 q 78 26 96 8 q 53 69 61 43 q 44 124 44 94 l 44 614 l 11 614 l 11 688 l 44 688 l 44 904 l 132 913 m 293 783 l 260 700 l 219 700 l 240 783 l 197 783 l 197 913 l 293 913 l 293 783 z "}," ":{"ha":0,"x_min":0,"x_max":0,"o":""},"ŧ":{"ha":201,"x_min":11,"x_max":189,"o":"m 132 913 l 132 688 l 189 688 l 189 614 l 132 614 l 132 507 l 189 507 l 189 433 l 132 433 l 132 124 q 147 78 132 93 q 189 68 163 63 l 189 -1 q 123 1 150 -7 q 78 26 96 8 q 53 69 61 43 q 44 124 44 94 l 44 433 l 11 433 l 11 507 l 44 507 l 44 614 l 11 614 l 11 688 l 44 688 l 44 904 l 132 913 z "},"Ŧ":{"ha":288,"x_min":4,"x_max":283,"o":"m 249 449 l 190 449 l 190 0 l 97 0 l 97 449 l 38 449 l 38 513 l 97 513 l 97 892 l 4 892 l 4 971 l 283 971 l 283 892 l 190 892 l 190 513 l 249 513 l 249 449 z "},"ţ":{"ha":201,"x_min":11,"x_max":239,"o":"m 132 913 l 132 688 l 189 688 l 189 614 l 132 614 l 132 124 q 147 78 132 93 q 189 68 163 63 l 189 -1 q 183 -2 186 -1 q 176 -3 179 -3 l 167 -28 q 215 -28 192 -17 q 239 -68 239 -40 q 217 -123 239 -104 q 167 -148 196 -142 q 110 -149 139 -154 q 67 -131 82 -144 l 76 -89 q 107 -101 89 -97 q 140 -103 125 -106 q 166 -93 156 -101 q 175 -69 176 -85 q 154 -48 172 -53 q 121 -54 136 -43 l 101 -47 l 125 0 q 63 44 82 11 q 44 124 44 78 l 44 614 l 11 614 l 11 688 l 44 688 l 44 904 l 132 913 z "},"Ũ":{"ha":319,"x_min":25,"x_max":297,"o":"m 150 -8 q 104 -1 126 -8 q 65 24 82 7 q 36 66 47 40 q 25 128 25 92 l 25 971 l 119 971 l 119 142 q 131 87 119 103 q 157 71 142 71 l 165 71 q 192 87 181 71 q 203 142 203 103 l 203 971 l 297 971 l 297 128 q 286 66 297 92 q 258 24 275 40 q 217 -1 240 7 q 172 -8 194 -8 l 150 -8 m 33 1081 q 97 1128 58 1128 q 142 1114 121 1128 q 188 1100 164 1100 q 224 1119 206 1100 l 267 1092 q 235 1056 251 1065 q 200 1047 218 1047 q 154 1060 175 1047 q 114 1074 133 1074 q 93 1069 103 1074 q 72 1054 83 1065 l 33 1081 z "},"Ů":{"ha":319,"x_min":25,"x_max":297,"o":"m 150 -8 q 104 -1 126 -8 q 65 24 82 7 q 36 66 47 40 q 25 128 25 92 l 25 971 l 119 971 l 119 142 q 131 87 119 103 q 157 71 142 71 l 165 71 q 192 87 181 71 q 203 142 203 103 l 203 971 l 297 971 l 297 128 q 286 66 297 92 q 258 24 275 40 q 217 -1 240 7 q 172 -8 194 -8 l 150 -8 m 149 1013 q 90 1038 117 1013 q 64 1097 64 1064 q 89 1160 64 1133 q 149 1188 114 1188 q 211 1161 185 1188 q 238 1097 238 1135 q 212 1039 238 1065 q 149 1013 186 1013 m 149 1138 q 123 1126 135 1138 q 111 1099 111 1114 q 123 1072 111 1083 q 149 1061 135 1061 q 176 1072 164 1061 q 188 1099 188 1083 q 176 1126 188 1114 q 149 1138 164 1138 z "},"Ŭ":{"ha":319,"x_min":25,"x_max":297,"o":"m 150 -8 q 104 -1 126 -8 q 65 24 82 7 q 36 66 47 40 q 25 128 25 92 l 25 971 l 119 971 l 119 142 q 131 87 119 103 q 157 71 142 71 l 165 71 q 192 87 181 71 q 203 142 203 103 l 203 971 l 297 971 l 297 128 q 286 66 297 92 q 258 24 275 40 q 217 -1 240 7 q 172 -8 194 -8 l 150 -8 m 111 1133 q 123 1106 111 1118 q 150 1094 135 1094 q 177 1106 165 1094 q 189 1133 189 1118 l 244 1133 q 217 1069 244 1097 q 149 1040 189 1040 q 85 1068 113 1040 q 57 1133 57 1096 l 111 1133 z "},"Ū":{"ha":319,"x_min":25,"x_max":297,"o":"m 150 -8 q 104 -1 126 -8 q 65 24 82 7 q 36 66 47 40 q 25 128 25 92 l 25 971 l 119 971 l 119 142 q 131 87 119 103 q 157 71 142 71 l 165 71 q 192 87 181 71 q 203 142 203 103 l 203 971 l 297 971 l 297 128 q 286 66 297 92 q 258 24 275 40 q 217 -1 240 7 q 172 -8 194 -8 l 150 -8 m 240 1054 l 56 1054 l 56 1119 l 240 1119 l 240 1054 z "},"ũ":{"ha":289,"x_min":19,"x_max":268,"o":"m 139 69 q 116 83 125 69 q 107 126 107 96 l 107 688 l 19 688 l 19 124 q 38 30 19 64 q 104 -4 56 -4 l 108 -4 q 145 6 126 -4 q 181 35 164 17 l 181 0 l 268 0 l 268 688 l 181 688 l 181 133 q 169 87 181 104 q 142 69 157 69 l 139 69 m 29 797 q 58 833 42 822 q 92 844 75 844 q 137 831 115 844 q 182 817 158 817 q 219 836 200 817 l 261 808 q 230 773 246 782 q 194 764 214 764 q 149 777 169 764 q 108 790 128 790 q 88 786 97 790 q 68 771 79 782 l 29 797 z "},"ů":{"ha":289,"x_min":19,"x_max":268,"o":"m 139 69 q 116 83 125 69 q 107 126 107 96 l 107 688 l 19 688 l 19 124 q 38 30 19 64 q 104 -4 56 -4 l 108 -4 q 145 6 126 -4 q 181 35 164 17 l 181 0 l 268 0 l 268 688 l 181 688 l 181 133 q 169 87 181 104 q 142 69 157 69 l 139 69 m 144 729 q 85 755 111 729 q 58 814 58 781 q 83 877 58 850 q 143 904 108 904 q 206 878 179 904 q 232 814 232 851 q 206 756 232 782 q 144 729 181 729 m 144 854 q 117 842 129 854 q 106 815 106 831 q 117 789 106 800 q 144 778 129 778 q 172 789 160 778 q 183 815 183 800 q 172 842 183 831 q 144 854 160 854 z "},"ŭ":{"ha":289,"x_min":19,"x_max":268,"o":"m 139 69 q 116 83 125 69 q 107 126 107 96 l 107 688 l 19 688 l 19 124 q 38 30 19 64 q 104 -4 56 -4 l 108 -4 q 145 6 126 -4 q 181 35 164 17 l 181 0 l 268 0 l 268 688 l 181 688 l 181 125 q 167 84 178 99 q 142 69 156 69 l 139 69 m 107 850 q 118 823 107 835 q 144 811 129 811 q 172 823 160 811 q 183 850 183 835 l 240 850 q 213 785 240 814 q 144 757 185 757 q 81 785 108 757 q 53 850 53 813 l 107 850 z "},"ū":{"ha":289,"x_min":19,"x_max":268,"o":"m 142 69 q 167 84 156 69 q 181 125 178 99 l 181 688 l 268 688 l 268 0 l 181 0 l 181 35 q 145 6 164 17 q 108 -4 126 -4 l 104 -4 q 38 30 56 -4 q 19 124 19 64 l 19 688 l 107 688 l 107 126 q 116 83 107 96 q 139 69 125 69 l 142 69 m 235 771 l 51 771 l 51 836 l 235 836 l 235 771 z "},"ĳ":{"ha":292,"x_min":25,"x_max":267,"o":"m 113 688 l 113 0 l 25 0 l 25 688 l 113 688 m 113 861 l 113 742 l 25 742 l 25 861 l 113 861 m 267 863 l 267 740 l 179 740 l 179 863 l 267 863 m 267 688 l 267 -101 q 233 -195 267 -161 q 122 -229 200 -229 l 122 -156 q 164 -142 149 -156 q 179 -101 179 -129 l 179 688 l 267 688 z "},"Ń":{"ha":354,"x_min":21,"x_max":333,"o":"m 228 0 l 101 682 l 100 682 l 100 0 l 21 0 l 21 971 l 128 971 l 247 299 l 247 971 l 333 971 l 333 0 l 228 0 m 147 1025 l 203 1144 l 286 1144 l 206 1025 l 147 1025 z "},"Ň":{"ha":354,"x_min":21,"x_max":333,"o":"m 228 0 l 101 682 l 100 682 l 100 0 l 21 0 l 21 971 l 128 971 l 247 299 l 247 971 l 333 971 l 333 0 l 228 0 m 135 1026 l 54 1146 l 136 1146 l 176 1071 l 217 1146 l 300 1146 l 219 1026 l 135 1026 z "},"ņ":{"ha":290,"x_min":22,"x_max":271,"o":"m 149 618 q 124 603 136 618 q 110 563 113 588 l 110 0 l 22 0 l 22 688 l 110 688 l 110 651 q 145 681 126 669 q 183 692 164 692 l 186 692 q 253 658 235 692 q 271 564 271 624 l 271 0 l 183 0 l 183 561 q 174 605 183 592 q 151 618 165 618 l 149 618 m 196 -154 l 163 -239 l 122 -239 l 143 -154 l 100 -154 l 100 -26 l 196 -26 l 196 -154 z "},"ń":{"ha":290,"x_min":22,"x_max":271,"o":"m 149 618 q 124 603 136 618 q 110 563 113 588 l 110 0 l 22 0 l 22 688 l 110 688 l 110 651 q 145 681 126 669 q 183 692 164 692 l 186 692 q 253 658 235 692 q 271 564 271 624 l 271 0 l 183 0 l 183 561 q 174 605 183 592 q 151 618 165 618 l 149 618 m 99 743 l 154 863 l 238 863 l 157 743 l 99 743 z "},"ň":{"ha":290,"x_min":22,"x_max":271,"o":"m 151 618 q 174 605 165 618 q 183 561 183 592 l 183 0 l 271 0 l 271 564 q 253 658 271 624 q 186 692 235 692 l 183 692 q 145 681 164 692 q 110 651 126 669 l 110 688 l 22 688 l 22 0 l 110 0 l 110 563 q 124 603 113 588 q 149 618 136 618 l 151 618 m 106 746 l 25 865 l 108 865 l 149 790 l 189 865 l 271 865 l 190 746 l 106 746 z "},"Ņ":{"ha":354,"x_min":21,"x_max":333,"o":"m 228 0 l 101 682 l 100 682 l 100 0 l 21 0 l 21 971 l 128 971 l 247 299 l 247 971 l 333 971 l 333 0 l 228 0 m 208 -153 l 175 -237 l 136 -237 l 157 -153 l 113 -153 l 113 -25 l 208 -25 l 208 -153 z "},"Ŋ":{"ha":351,"x_min":22,"x_max":329,"o":"m 225 0 l 99 688 l 97 688 l 97 0 l 22 0 l 22 971 l 128 971 l 247 293 l 247 971 l 329 971 l 329 -101 q 288 -195 329 -161 q 168 -229 246 -229 l 168 -156 q 210 -142 194 -156 q 225 -101 225 -129 l 225 0 z "},"ŋ":{"ha":290,"x_min":22,"x_max":271,"o":"m 149 618 q 124 603 136 618 q 110 563 113 588 l 110 0 l 22 0 l 22 688 l 110 688 l 110 651 q 145 681 126 669 q 183 692 164 692 l 186 692 q 253 658 235 692 q 271 564 271 624 l 271 -101 q 238 -195 271 -161 q 128 -229 204 -229 l 128 -156 q 183 -101 183 -156 l 183 561 q 174 605 183 592 q 151 618 165 618 l 149 618 z "},"Ŏ":{"ha":317,"x_min":22,"x_max":294,"o":"m 147 -8 q 101 -1 124 -8 q 62 24 79 7 q 33 66 44 40 q 22 128 22 92 l 22 843 q 33 905 22 879 q 62 947 44 931 q 101 972 79 964 q 147 979 124 979 l 169 979 q 215 972 192 979 q 255 947 238 964 q 283 905 272 931 q 294 843 294 879 l 294 128 q 283 66 294 92 q 255 24 272 40 q 215 -1 238 7 q 169 -8 192 -8 l 147 -8 m 154 900 q 128 883 139 900 q 117 829 117 867 l 117 142 q 128 87 117 103 q 154 71 139 71 l 163 71 q 189 87 178 71 q 200 142 200 103 l 200 829 q 189 883 200 867 q 163 900 178 900 l 154 900 m 121 1133 q 133 1106 121 1118 q 160 1094 144 1094 q 187 1106 175 1094 q 199 1133 199 1118 l 254 1133 q 226 1069 254 1097 q 158 1040 199 1040 q 94 1068 122 1040 q 67 1133 67 1096 l 121 1133 z "},"Ō":{"ha":317,"x_min":22,"x_max":294,"o":"m 147 -8 q 101 -1 124 -8 q 62 24 79 7 q 33 66 44 40 q 22 128 22 92 l 22 843 q 33 905 22 879 q 62 947 44 931 q 101 972 79 964 q 147 979 124 979 l 169 979 q 215 972 192 979 q 255 947 238 964 q 283 905 272 931 q 294 843 294 879 l 294 128 q 283 66 294 92 q 255 24 272 40 q 215 -1 238 7 q 169 -8 192 -8 l 147 -8 m 154 900 q 128 883 139 900 q 117 829 117 867 l 117 142 q 128 87 117 103 q 154 71 139 71 l 163 71 q 189 87 178 71 q 200 142 200 103 l 200 829 q 189 883 200 867 q 163 900 178 900 l 154 900 m 250 1054 l 65 1054 l 65 1119 l 250 1119 l 250 1054 z "},"ŏ":{"ha":286,"x_min":21,"x_max":268,"o":"m 133 -4 q 53 30 85 -4 q 21 124 21 64 l 21 564 q 53 658 22 624 q 133 692 85 692 l 156 692 q 235 658 203 692 q 268 564 268 624 l 268 124 q 235 30 268 64 q 156 -4 203 -4 l 133 -4 m 142 618 q 118 604 128 618 q 108 561 108 590 l 108 126 q 118 83 108 96 q 142 69 128 69 l 149 69 q 172 83 163 69 q 181 126 181 96 l 181 561 q 172 604 181 590 q 149 618 163 618 l 142 618 m 107 851 q 119 824 107 836 q 146 813 131 813 q 173 824 161 813 q 185 851 185 836 l 240 851 q 213 787 240 815 q 144 758 185 758 q 81 786 108 758 q 53 851 53 814 l 107 851 z "},"ō":{"ha":286,"x_min":21,"x_max":268,"o":"m 133 -4 q 53 30 85 -4 q 21 124 21 64 l 21 564 q 53 658 22 624 q 133 692 85 692 l 156 692 q 235 658 203 692 q 268 564 268 624 l 268 124 q 235 30 268 64 q 156 -4 203 -4 l 133 -4 m 142 618 q 118 604 128 618 q 108 561 108 590 l 108 126 q 118 83 108 96 q 142 69 128 69 l 149 69 q 172 83 163 69 q 181 126 181 96 l 181 561 q 172 604 181 590 q 149 618 163 618 l 142 618 m 236 774 l 51 774 l 51 838 l 236 838 l 236 774 z "},"ſ":{"ha":231,"x_min":21,"x_max":228,"o":"m 21 688 l 56 688 l 56 853 q 66 908 56 882 q 98 953 76 935 q 151 977 119 971 q 228 974 183 983 l 228 904 q 200 904 215 906 q 172 896 185 903 q 150 876 158 889 q 142 846 142 864 l 142 0 l 56 0 l 56 614 l 21 614 l 21 688 z "},"ŉ":{"ha":392,"x_min":18,"x_max":372,"o":"m 253 618 q 276 605 267 618 q 286 561 286 592 l 286 0 l 372 0 l 372 564 q 354 658 372 624 q 289 692 336 692 l 285 692 q 247 681 265 692 q 211 651 228 669 l 211 688 l 124 688 l 124 0 l 211 0 l 211 563 q 226 603 214 588 q 250 618 238 618 l 253 618 m 113 818 l 79 733 l 40 733 l 61 818 l 18 818 l 18 946 l 113 946 l 113 818 z "},"Ĳ":{"ha":464,"x_min":25,"x_max":439,"o":"m 119 971 l 119 0 l 25 0 l 25 971 l 119 971 m 292 -8 q 247 -1 269 -8 q 207 24 225 7 q 178 66 189 40 q 167 128 167 92 l 167 390 l 261 390 l 261 142 q 272 87 261 103 q 299 71 283 71 l 307 71 q 333 87 322 71 q 344 142 344 103 l 344 971 l 439 971 l 439 128 q 428 66 439 92 q 400 24 418 40 q 360 -1 382 7 q 314 -8 338 -8 l 292 -8 z "},"ĸ":{"ha":289,"x_min":25,"x_max":286,"o":"m 165 358 l 286 0 l 197 0 l 111 258 l 111 0 l 25 0 l 25 688 l 111 688 l 111 447 l 201 688 l 285 688 l 165 358 z "},"Ð":{"ha":319,"x_min":-8,"x_max":297,"o":"m 25 0 l 25 453 l -8 453 l -8 519 l 25 519 l 25 971 l 172 971 q 217 964 194 971 q 258 941 240 957 q 286 900 275 925 q 297 839 297 875 l 297 132 q 286 71 297 96 q 258 30 275 46 q 217 7 240 14 q 172 0 194 0 l 25 0 m 119 892 l 119 519 l 150 519 l 150 453 l 119 453 l 119 79 l 165 79 q 192 94 181 79 q 203 146 203 108 l 203 825 q 192 877 203 863 q 165 892 181 892 l 119 892 z "},"Ľ":{"ha":301,"x_min":25,"x_max":269,"o":"m 25 971 l 25 0 l 236 0 l 236 71 l 119 71 l 119 971 l 25 971 m 269 844 l 236 760 l 197 760 l 218 844 l 174 844 l 174 972 l 269 972 l 269 844 z "},"Ų":{"ha":319,"x_min":25,"x_max":297,"o":"m 236 -99 q 201 -134 224 -124 q 154 -142 178 -144 q 113 -123 131 -139 q 96 -79 96 -107 q 106 -40 96 -57 q 135 -7 117 -22 q 59 28 93 -3 q 25 128 25 60 l 25 971 l 119 971 l 119 142 q 131 87 119 103 q 157 71 142 71 l 165 71 q 192 87 181 71 q 203 142 203 103 l 203 971 l 297 971 l 297 128 q 268 34 297 65 q 200 -6 239 3 q 162 -35 176 -17 q 149 -68 147 -53 q 169 -96 149 -93 q 204 -78 190 -99 l 236 -99 z "},"ð":{"ha":326,"x_min":21,"x_max":324,"o":"m 268 0 l 197 0 l 188 39 q 151 8 171 19 q 113 -4 132 -4 l 108 -4 q 40 30 60 -4 q 21 124 21 64 l 21 564 q 40 658 21 624 q 106 692 58 692 l 110 692 q 146 681 128 692 q 181 653 164 671 l 181 822 l 131 822 l 131 886 l 181 886 l 181 971 l 268 971 l 268 886 l 324 886 l 324 822 l 268 822 l 268 0 m 142 618 q 118 604 128 618 q 108 561 108 590 l 108 126 q 117 83 108 96 q 140 69 126 69 l 143 69 q 167 83 157 69 q 181 122 178 96 l 181 564 q 167 603 178 589 q 144 618 157 618 l 142 618 z "},"í":{"ha":133,"x_min":25,"x_max":176,"o":"m 113 688 l 113 0 l 25 0 l 25 688 l 113 688 m 39 742 l 94 861 l 176 861 l 96 742 l 39 742 z "},"ĺ":{"ha":132,"x_min":25,"x_max":179,"o":"m 25 971 l 113 971 l 113 0 l 25 0 l 25 971 m 40 1025 l 96 1144 l 179 1144 l 99 1025 l 40 1025 z "},"ś":{"ha":286,"x_min":21,"x_max":267,"o":"m 181 417 l 181 561 q 171 603 181 589 q 147 618 161 618 l 142 618 q 118 603 128 618 q 108 561 108 589 l 108 490 q 133 415 108 446 q 188 353 158 383 q 242 289 217 324 q 267 203 267 254 l 267 124 q 235 30 267 64 q 156 -4 203 -4 l 135 -4 q 53 30 86 -4 q 21 124 21 64 l 21 271 l 100 271 l 100 126 q 110 84 100 99 q 138 69 121 69 l 144 69 q 170 84 160 69 q 181 126 181 99 l 181 197 q 156 271 181 240 q 101 331 131 301 q 46 397 71 361 q 21 485 21 432 l 21 564 q 53 658 21 624 q 133 692 85 692 l 146 692 q 226 658 194 692 q 258 564 258 624 l 258 417 l 181 417 m 110 743 l 165 863 l 249 863 l 168 743 l 110 743 z "},"ŝ":{"ha":286,"x_min":18,"x_max":267,"o":"m 181 417 l 181 561 q 171 603 181 589 q 147 618 161 618 l 142 618 q 118 603 128 618 q 108 561 108 589 l 108 490 q 133 415 108 446 q 188 353 158 383 q 242 289 217 324 q 267 203 267 254 l 267 124 q 235 30 267 64 q 156 -4 203 -4 l 135 -4 q 53 30 86 -4 q 21 124 21 64 l 21 271 l 100 271 l 100 126 q 110 84 100 99 q 138 69 121 69 l 144 69 q 170 84 160 69 q 181 126 181 99 l 181 197 q 156 271 181 240 q 101 331 131 301 q 46 397 71 361 q 21 485 21 432 l 21 564 q 53 658 21 624 q 133 692 85 692 l 146 692 q 226 658 194 692 q 258 564 258 624 l 258 417 l 181 417 m 183 863 l 264 743 l 181 743 l 140 818 l 100 743 l 18 743 l 99 863 l 183 863 z "},"ş":{"ha":286,"x_min":21,"x_max":267,"o":"m 69 -94 q 100 -107 82 -103 q 133 -109 118 -111 q 159 -99 149 -107 q 168 -75 169 -90 q 148 -53 167 -58 q 114 -60 129 -49 l 94 -51 l 119 -3 q 48 35 75 1 q 21 124 21 68 l 21 271 l 100 271 l 100 126 q 110 84 100 99 q 138 69 121 69 l 144 69 q 170 84 160 69 q 181 126 181 99 l 181 197 q 156 271 181 240 q 101 331 131 301 q 46 397 71 361 q 21 485 21 432 l 21 564 q 53 658 21 624 q 133 692 85 692 l 146 692 q 226 658 194 692 q 258 564 258 624 l 258 417 l 181 417 l 181 561 q 171 603 181 589 q 147 618 161 618 l 142 618 q 118 603 128 618 q 108 561 108 589 l 108 490 q 133 415 108 446 q 188 353 158 383 q 242 289 217 324 q 267 203 267 254 l 267 124 q 240 36 267 69 q 172 -3 213 3 l 160 -33 q 208 -34 185 -22 q 232 -74 232 -46 q 210 -128 232 -110 q 160 -153 189 -147 q 103 -154 132 -160 q 60 -136 75 -149 l 69 -94 z "},"−":{"ha":339,"x_min":25,"x_max":314,"o":"m 314 518 l 314 454 l 25 454 l 25 518 l 314 518 z "},"ﬂ":{"ha":363,"x_min":21,"x_max":344,"o":"m 56 0 l 56 614 l 21 614 l 21 688 l 56 688 l 56 853 q 66 908 56 882 q 98 953 76 935 q 151 977 119 971 q 228 974 183 983 l 228 904 q 200 904 215 906 q 172 896 185 903 q 150 876 158 889 q 142 846 142 864 l 142 688 l 228 688 l 228 614 l 142 614 l 142 0 l 56 0 m 258 0 l 344 0 l 344 971 l 258 971 l 258 0 z "},"J":{"ha":317,"x_min":22,"x_max":294,"o":"m 147 -8 q 103 -1 125 -8 q 63 24 81 7 q 33 66 44 40 q 22 128 22 92 l 22 390 l 117 390 l 117 142 q 128 87 117 103 q 154 71 139 71 l 163 71 q 189 87 178 71 q 200 142 200 103 l 200 971 l 294 971 l 294 128 q 284 66 294 92 q 256 24 274 40 q 215 -1 238 7 q 169 -8 193 -8 l 147 -8 z "},"H":{"ha":317,"x_min":25,"x_max":292,"o":"m 292 971 l 292 0 l 199 0 l 199 450 l 119 450 l 119 0 l 25 0 l 25 971 l 119 971 l 119 519 l 199 519 l 199 971 l 292 971 z "},"I":{"ha":144,"x_min":25,"x_max":119,"o":"m 119 971 l 119 0 l 25 0 l 25 971 l 119 971 z "}}}
